G75*
G70*
%OFA0B0*%
%FSLAX24Y24*%
%IPPOS*%
%LPD*%
%AMOC8*
5,1,8,0,0,1.08239X$1,22.5*
%
%ADD10C,0.0000*%
%ADD11R,0.0787X0.0276*%
%ADD12R,0.0748X0.0433*%
%ADD13R,0.0240X0.0870*%
%ADD14R,0.0472X0.0315*%
%ADD15R,0.0315X0.0472*%
%ADD16R,0.0472X0.0472*%
D10*
X006148Y009111D02*
X006148Y016198D01*
X012054Y016198D01*
X011954Y016198D02*
X011956Y016218D01*
X011962Y016236D01*
X011971Y016254D01*
X011983Y016269D01*
X011998Y016281D01*
X012016Y016290D01*
X012034Y016296D01*
X012054Y016298D01*
X012074Y016296D01*
X012092Y016290D01*
X012110Y016281D01*
X012125Y016269D01*
X012137Y016254D01*
X012146Y016236D01*
X012152Y016218D01*
X012154Y016198D01*
X012152Y016178D01*
X012146Y016160D01*
X012137Y016142D01*
X012125Y016127D01*
X012110Y016115D01*
X012092Y016106D01*
X012074Y016100D01*
X012054Y016098D01*
X012034Y016100D01*
X012016Y016106D01*
X011998Y016115D01*
X011983Y016127D01*
X011971Y016142D01*
X011962Y016160D01*
X011956Y016178D01*
X011954Y016198D01*
X012054Y016198D02*
X019140Y016198D01*
X019040Y016198D02*
X019042Y016218D01*
X019048Y016236D01*
X019057Y016254D01*
X019069Y016269D01*
X019084Y016281D01*
X019102Y016290D01*
X019120Y016296D01*
X019140Y016298D01*
X019160Y016296D01*
X019178Y016290D01*
X019196Y016281D01*
X019211Y016269D01*
X019223Y016254D01*
X019232Y016236D01*
X019238Y016218D01*
X019240Y016198D01*
X019238Y016178D01*
X019232Y016160D01*
X019223Y016142D01*
X019211Y016127D01*
X019196Y016115D01*
X019178Y016106D01*
X019160Y016100D01*
X019140Y016098D01*
X019120Y016100D01*
X019102Y016106D01*
X019084Y016115D01*
X019069Y016127D01*
X019057Y016142D01*
X019048Y016160D01*
X019042Y016178D01*
X019040Y016198D01*
X019140Y016198D02*
X026227Y016198D01*
X026127Y016198D02*
X026129Y016218D01*
X026135Y016236D01*
X026144Y016254D01*
X026156Y016269D01*
X026171Y016281D01*
X026189Y016290D01*
X026207Y016296D01*
X026227Y016298D01*
X026247Y016296D01*
X026265Y016290D01*
X026283Y016281D01*
X026298Y016269D01*
X026310Y016254D01*
X026319Y016236D01*
X026325Y016218D01*
X026327Y016198D01*
X026325Y016178D01*
X026319Y016160D01*
X026310Y016142D01*
X026298Y016127D01*
X026283Y016115D01*
X026265Y016106D01*
X026247Y016100D01*
X026227Y016098D01*
X026207Y016100D01*
X026189Y016106D01*
X026171Y016115D01*
X026156Y016127D01*
X026144Y016142D01*
X026135Y016160D01*
X026129Y016178D01*
X026127Y016198D01*
X026227Y016198D02*
X033313Y016198D01*
X033213Y016198D02*
X033215Y016218D01*
X033221Y016236D01*
X033230Y016254D01*
X033242Y016269D01*
X033257Y016281D01*
X033275Y016290D01*
X033293Y016296D01*
X033313Y016298D01*
X033333Y016296D01*
X033351Y016290D01*
X033369Y016281D01*
X033384Y016269D01*
X033396Y016254D01*
X033405Y016236D01*
X033411Y016218D01*
X033413Y016198D01*
X033411Y016178D01*
X033405Y016160D01*
X033396Y016142D01*
X033384Y016127D01*
X033369Y016115D01*
X033351Y016106D01*
X033333Y016100D01*
X033313Y016098D01*
X033293Y016100D01*
X033275Y016106D01*
X033257Y016115D01*
X033242Y016127D01*
X033230Y016142D01*
X033221Y016160D01*
X033215Y016178D01*
X033213Y016198D01*
X033313Y016198D02*
X040400Y016198D01*
X040300Y016198D02*
X040302Y016218D01*
X040308Y016236D01*
X040317Y016254D01*
X040329Y016269D01*
X040344Y016281D01*
X040362Y016290D01*
X040380Y016296D01*
X040400Y016298D01*
X040420Y016296D01*
X040438Y016290D01*
X040456Y016281D01*
X040471Y016269D01*
X040483Y016254D01*
X040492Y016236D01*
X040498Y016218D01*
X040500Y016198D01*
X040498Y016178D01*
X040492Y016160D01*
X040483Y016142D01*
X040471Y016127D01*
X040456Y016115D01*
X040438Y016106D01*
X040420Y016100D01*
X040400Y016098D01*
X040380Y016100D01*
X040362Y016106D01*
X040344Y016115D01*
X040329Y016127D01*
X040317Y016142D01*
X040308Y016160D01*
X040302Y016178D01*
X040300Y016198D01*
X040400Y016198D02*
X047487Y016198D01*
X047387Y016198D02*
X047389Y016218D01*
X047395Y016236D01*
X047404Y016254D01*
X047416Y016269D01*
X047431Y016281D01*
X047449Y016290D01*
X047467Y016296D01*
X047487Y016298D01*
X047507Y016296D01*
X047525Y016290D01*
X047543Y016281D01*
X047558Y016269D01*
X047570Y016254D01*
X047579Y016236D01*
X047585Y016218D01*
X047587Y016198D01*
X047585Y016178D01*
X047579Y016160D01*
X047570Y016142D01*
X047558Y016127D01*
X047543Y016115D01*
X047525Y016106D01*
X047507Y016100D01*
X047487Y016098D01*
X047467Y016100D01*
X047449Y016106D01*
X047431Y016115D01*
X047416Y016127D01*
X047404Y016142D01*
X047395Y016160D01*
X047389Y016178D01*
X047387Y016198D01*
X047487Y016198D02*
X054573Y016198D01*
X054473Y016198D02*
X054475Y016218D01*
X054481Y016236D01*
X054490Y016254D01*
X054502Y016269D01*
X054517Y016281D01*
X054535Y016290D01*
X054553Y016296D01*
X054573Y016298D01*
X054593Y016296D01*
X054611Y016290D01*
X054629Y016281D01*
X054644Y016269D01*
X054656Y016254D01*
X054665Y016236D01*
X054671Y016218D01*
X054673Y016198D01*
X054671Y016178D01*
X054665Y016160D01*
X054656Y016142D01*
X054644Y016127D01*
X054629Y016115D01*
X054611Y016106D01*
X054593Y016100D01*
X054573Y016098D01*
X054553Y016100D01*
X054535Y016106D01*
X054517Y016115D01*
X054502Y016127D01*
X054490Y016142D01*
X054481Y016160D01*
X054475Y016178D01*
X054473Y016198D01*
X054573Y016198D02*
X061660Y016198D01*
X061560Y016198D02*
X061562Y016218D01*
X061568Y016236D01*
X061577Y016254D01*
X061589Y016269D01*
X061604Y016281D01*
X061622Y016290D01*
X061640Y016296D01*
X061660Y016298D01*
X061680Y016296D01*
X061698Y016290D01*
X061716Y016281D01*
X061731Y016269D01*
X061743Y016254D01*
X061752Y016236D01*
X061758Y016218D01*
X061760Y016198D01*
X061758Y016178D01*
X061752Y016160D01*
X061743Y016142D01*
X061731Y016127D01*
X061716Y016115D01*
X061698Y016106D01*
X061680Y016100D01*
X061660Y016098D01*
X061640Y016100D01*
X061622Y016106D01*
X061604Y016115D01*
X061589Y016127D01*
X061577Y016142D01*
X061568Y016160D01*
X061562Y016178D01*
X061560Y016198D01*
X061660Y016198D02*
X068746Y016198D01*
X068746Y009111D01*
X061660Y009111D01*
X061560Y009111D02*
X061562Y009131D01*
X061568Y009149D01*
X061577Y009167D01*
X061589Y009182D01*
X061604Y009194D01*
X061622Y009203D01*
X061640Y009209D01*
X061660Y009211D01*
X061680Y009209D01*
X061698Y009203D01*
X061716Y009194D01*
X061731Y009182D01*
X061743Y009167D01*
X061752Y009149D01*
X061758Y009131D01*
X061760Y009111D01*
X061758Y009091D01*
X061752Y009073D01*
X061743Y009055D01*
X061731Y009040D01*
X061716Y009028D01*
X061698Y009019D01*
X061680Y009013D01*
X061660Y009011D01*
X061640Y009013D01*
X061622Y009019D01*
X061604Y009028D01*
X061589Y009040D01*
X061577Y009055D01*
X061568Y009073D01*
X061562Y009091D01*
X061560Y009111D01*
X061660Y009111D02*
X054573Y009111D01*
X054473Y009111D02*
X054475Y009131D01*
X054481Y009149D01*
X054490Y009167D01*
X054502Y009182D01*
X054517Y009194D01*
X054535Y009203D01*
X054553Y009209D01*
X054573Y009211D01*
X054593Y009209D01*
X054611Y009203D01*
X054629Y009194D01*
X054644Y009182D01*
X054656Y009167D01*
X054665Y009149D01*
X054671Y009131D01*
X054673Y009111D01*
X054671Y009091D01*
X054665Y009073D01*
X054656Y009055D01*
X054644Y009040D01*
X054629Y009028D01*
X054611Y009019D01*
X054593Y009013D01*
X054573Y009011D01*
X054553Y009013D01*
X054535Y009019D01*
X054517Y009028D01*
X054502Y009040D01*
X054490Y009055D01*
X054481Y009073D01*
X054475Y009091D01*
X054473Y009111D01*
X054573Y009111D02*
X047487Y009111D01*
X047387Y009111D02*
X047389Y009131D01*
X047395Y009149D01*
X047404Y009167D01*
X047416Y009182D01*
X047431Y009194D01*
X047449Y009203D01*
X047467Y009209D01*
X047487Y009211D01*
X047507Y009209D01*
X047525Y009203D01*
X047543Y009194D01*
X047558Y009182D01*
X047570Y009167D01*
X047579Y009149D01*
X047585Y009131D01*
X047587Y009111D01*
X047585Y009091D01*
X047579Y009073D01*
X047570Y009055D01*
X047558Y009040D01*
X047543Y009028D01*
X047525Y009019D01*
X047507Y009013D01*
X047487Y009011D01*
X047467Y009013D01*
X047449Y009019D01*
X047431Y009028D01*
X047416Y009040D01*
X047404Y009055D01*
X047395Y009073D01*
X047389Y009091D01*
X047387Y009111D01*
X047487Y009111D02*
X040400Y009111D01*
X040300Y009111D02*
X040302Y009131D01*
X040308Y009149D01*
X040317Y009167D01*
X040329Y009182D01*
X040344Y009194D01*
X040362Y009203D01*
X040380Y009209D01*
X040400Y009211D01*
X040420Y009209D01*
X040438Y009203D01*
X040456Y009194D01*
X040471Y009182D01*
X040483Y009167D01*
X040492Y009149D01*
X040498Y009131D01*
X040500Y009111D01*
X040498Y009091D01*
X040492Y009073D01*
X040483Y009055D01*
X040471Y009040D01*
X040456Y009028D01*
X040438Y009019D01*
X040420Y009013D01*
X040400Y009011D01*
X040380Y009013D01*
X040362Y009019D01*
X040344Y009028D01*
X040329Y009040D01*
X040317Y009055D01*
X040308Y009073D01*
X040302Y009091D01*
X040300Y009111D01*
X040400Y009111D02*
X033313Y009111D01*
X033213Y009111D02*
X033215Y009131D01*
X033221Y009149D01*
X033230Y009167D01*
X033242Y009182D01*
X033257Y009194D01*
X033275Y009203D01*
X033293Y009209D01*
X033313Y009211D01*
X033333Y009209D01*
X033351Y009203D01*
X033369Y009194D01*
X033384Y009182D01*
X033396Y009167D01*
X033405Y009149D01*
X033411Y009131D01*
X033413Y009111D01*
X033411Y009091D01*
X033405Y009073D01*
X033396Y009055D01*
X033384Y009040D01*
X033369Y009028D01*
X033351Y009019D01*
X033333Y009013D01*
X033313Y009011D01*
X033293Y009013D01*
X033275Y009019D01*
X033257Y009028D01*
X033242Y009040D01*
X033230Y009055D01*
X033221Y009073D01*
X033215Y009091D01*
X033213Y009111D01*
X033313Y009111D02*
X026227Y009111D01*
X026127Y009111D02*
X026129Y009131D01*
X026135Y009149D01*
X026144Y009167D01*
X026156Y009182D01*
X026171Y009194D01*
X026189Y009203D01*
X026207Y009209D01*
X026227Y009211D01*
X026247Y009209D01*
X026265Y009203D01*
X026283Y009194D01*
X026298Y009182D01*
X026310Y009167D01*
X026319Y009149D01*
X026325Y009131D01*
X026327Y009111D01*
X026325Y009091D01*
X026319Y009073D01*
X026310Y009055D01*
X026298Y009040D01*
X026283Y009028D01*
X026265Y009019D01*
X026247Y009013D01*
X026227Y009011D01*
X026207Y009013D01*
X026189Y009019D01*
X026171Y009028D01*
X026156Y009040D01*
X026144Y009055D01*
X026135Y009073D01*
X026129Y009091D01*
X026127Y009111D01*
X026227Y009111D02*
X019140Y009111D01*
X019040Y009111D02*
X019042Y009131D01*
X019048Y009149D01*
X019057Y009167D01*
X019069Y009182D01*
X019084Y009194D01*
X019102Y009203D01*
X019120Y009209D01*
X019140Y009211D01*
X019160Y009209D01*
X019178Y009203D01*
X019196Y009194D01*
X019211Y009182D01*
X019223Y009167D01*
X019232Y009149D01*
X019238Y009131D01*
X019240Y009111D01*
X019238Y009091D01*
X019232Y009073D01*
X019223Y009055D01*
X019211Y009040D01*
X019196Y009028D01*
X019178Y009019D01*
X019160Y009013D01*
X019140Y009011D01*
X019120Y009013D01*
X019102Y009019D01*
X019084Y009028D01*
X019069Y009040D01*
X019057Y009055D01*
X019048Y009073D01*
X019042Y009091D01*
X019040Y009111D01*
X019140Y009111D02*
X012054Y009111D01*
X011954Y009111D02*
X011956Y009131D01*
X011962Y009149D01*
X011971Y009167D01*
X011983Y009182D01*
X011998Y009194D01*
X012016Y009203D01*
X012034Y009209D01*
X012054Y009211D01*
X012074Y009209D01*
X012092Y009203D01*
X012110Y009194D01*
X012125Y009182D01*
X012137Y009167D01*
X012146Y009149D01*
X012152Y009131D01*
X012154Y009111D01*
X012152Y009091D01*
X012146Y009073D01*
X012137Y009055D01*
X012125Y009040D01*
X012110Y009028D01*
X012092Y009019D01*
X012074Y009013D01*
X012054Y009011D01*
X012034Y009013D01*
X012016Y009019D01*
X011998Y009028D01*
X011983Y009040D01*
X011971Y009055D01*
X011962Y009073D01*
X011956Y009091D01*
X011954Y009111D01*
X012054Y009111D02*
X006148Y009111D01*
X011954Y009505D02*
X011956Y009525D01*
X011962Y009543D01*
X011971Y009561D01*
X011983Y009576D01*
X011998Y009588D01*
X012016Y009597D01*
X012034Y009603D01*
X012054Y009605D01*
X012074Y009603D01*
X012092Y009597D01*
X012110Y009588D01*
X012125Y009576D01*
X012137Y009561D01*
X012146Y009543D01*
X012152Y009525D01*
X012154Y009505D01*
X012152Y009485D01*
X012146Y009467D01*
X012137Y009449D01*
X012125Y009434D01*
X012110Y009422D01*
X012092Y009413D01*
X012074Y009407D01*
X012054Y009405D01*
X012034Y009407D01*
X012016Y009413D01*
X011998Y009422D01*
X011983Y009434D01*
X011971Y009449D01*
X011962Y009467D01*
X011956Y009485D01*
X011954Y009505D01*
X011954Y009899D02*
X011956Y009919D01*
X011962Y009937D01*
X011971Y009955D01*
X011983Y009970D01*
X011998Y009982D01*
X012016Y009991D01*
X012034Y009997D01*
X012054Y009999D01*
X012074Y009997D01*
X012092Y009991D01*
X012110Y009982D01*
X012125Y009970D01*
X012137Y009955D01*
X012146Y009937D01*
X012152Y009919D01*
X012154Y009899D01*
X012152Y009879D01*
X012146Y009861D01*
X012137Y009843D01*
X012125Y009828D01*
X012110Y009816D01*
X012092Y009807D01*
X012074Y009801D01*
X012054Y009799D01*
X012034Y009801D01*
X012016Y009807D01*
X011998Y009816D01*
X011983Y009828D01*
X011971Y009843D01*
X011962Y009861D01*
X011956Y009879D01*
X011954Y009899D01*
X011954Y010292D02*
X011956Y010312D01*
X011962Y010330D01*
X011971Y010348D01*
X011983Y010363D01*
X011998Y010375D01*
X012016Y010384D01*
X012034Y010390D01*
X012054Y010392D01*
X012074Y010390D01*
X012092Y010384D01*
X012110Y010375D01*
X012125Y010363D01*
X012137Y010348D01*
X012146Y010330D01*
X012152Y010312D01*
X012154Y010292D01*
X012152Y010272D01*
X012146Y010254D01*
X012137Y010236D01*
X012125Y010221D01*
X012110Y010209D01*
X012092Y010200D01*
X012074Y010194D01*
X012054Y010192D01*
X012034Y010194D01*
X012016Y010200D01*
X011998Y010209D01*
X011983Y010221D01*
X011971Y010236D01*
X011962Y010254D01*
X011956Y010272D01*
X011954Y010292D01*
X011954Y010686D02*
X011956Y010706D01*
X011962Y010724D01*
X011971Y010742D01*
X011983Y010757D01*
X011998Y010769D01*
X012016Y010778D01*
X012034Y010784D01*
X012054Y010786D01*
X012074Y010784D01*
X012092Y010778D01*
X012110Y010769D01*
X012125Y010757D01*
X012137Y010742D01*
X012146Y010724D01*
X012152Y010706D01*
X012154Y010686D01*
X012152Y010666D01*
X012146Y010648D01*
X012137Y010630D01*
X012125Y010615D01*
X012110Y010603D01*
X012092Y010594D01*
X012074Y010588D01*
X012054Y010586D01*
X012034Y010588D01*
X012016Y010594D01*
X011998Y010603D01*
X011983Y010615D01*
X011971Y010630D01*
X011962Y010648D01*
X011956Y010666D01*
X011954Y010686D01*
X011954Y011355D02*
X011956Y011375D01*
X011962Y011393D01*
X011971Y011411D01*
X011983Y011426D01*
X011998Y011438D01*
X012016Y011447D01*
X012034Y011453D01*
X012054Y011455D01*
X012074Y011453D01*
X012092Y011447D01*
X012110Y011438D01*
X012125Y011426D01*
X012137Y011411D01*
X012146Y011393D01*
X012152Y011375D01*
X012154Y011355D01*
X012152Y011335D01*
X012146Y011317D01*
X012137Y011299D01*
X012125Y011284D01*
X012110Y011272D01*
X012092Y011263D01*
X012074Y011257D01*
X012054Y011255D01*
X012034Y011257D01*
X012016Y011263D01*
X011998Y011272D01*
X011983Y011284D01*
X011971Y011299D01*
X011962Y011317D01*
X011956Y011335D01*
X011954Y011355D01*
X011954Y011946D02*
X011956Y011966D01*
X011962Y011984D01*
X011971Y012002D01*
X011983Y012017D01*
X011998Y012029D01*
X012016Y012038D01*
X012034Y012044D01*
X012054Y012046D01*
X012074Y012044D01*
X012092Y012038D01*
X012110Y012029D01*
X012125Y012017D01*
X012137Y012002D01*
X012146Y011984D01*
X012152Y011966D01*
X012154Y011946D01*
X012152Y011926D01*
X012146Y011908D01*
X012137Y011890D01*
X012125Y011875D01*
X012110Y011863D01*
X012092Y011854D01*
X012074Y011848D01*
X012054Y011846D01*
X012034Y011848D01*
X012016Y011854D01*
X011998Y011863D01*
X011983Y011875D01*
X011971Y011890D01*
X011962Y011908D01*
X011956Y011926D01*
X011954Y011946D01*
X011954Y012536D02*
X011956Y012556D01*
X011962Y012574D01*
X011971Y012592D01*
X011983Y012607D01*
X011998Y012619D01*
X012016Y012628D01*
X012034Y012634D01*
X012054Y012636D01*
X012074Y012634D01*
X012092Y012628D01*
X012110Y012619D01*
X012125Y012607D01*
X012137Y012592D01*
X012146Y012574D01*
X012152Y012556D01*
X012154Y012536D01*
X012152Y012516D01*
X012146Y012498D01*
X012137Y012480D01*
X012125Y012465D01*
X012110Y012453D01*
X012092Y012444D01*
X012074Y012438D01*
X012054Y012436D01*
X012034Y012438D01*
X012016Y012444D01*
X011998Y012453D01*
X011983Y012465D01*
X011971Y012480D01*
X011962Y012498D01*
X011956Y012516D01*
X011954Y012536D01*
X011954Y013127D02*
X011956Y013147D01*
X011962Y013165D01*
X011971Y013183D01*
X011983Y013198D01*
X011998Y013210D01*
X012016Y013219D01*
X012034Y013225D01*
X012054Y013227D01*
X012074Y013225D01*
X012092Y013219D01*
X012110Y013210D01*
X012125Y013198D01*
X012137Y013183D01*
X012146Y013165D01*
X012152Y013147D01*
X012154Y013127D01*
X012152Y013107D01*
X012146Y013089D01*
X012137Y013071D01*
X012125Y013056D01*
X012110Y013044D01*
X012092Y013035D01*
X012074Y013029D01*
X012054Y013027D01*
X012034Y013029D01*
X012016Y013035D01*
X011998Y013044D01*
X011983Y013056D01*
X011971Y013071D01*
X011962Y013089D01*
X011956Y013107D01*
X011954Y013127D01*
X011954Y013434D02*
X011956Y013454D01*
X011962Y013472D01*
X011971Y013490D01*
X011983Y013505D01*
X011998Y013517D01*
X012016Y013526D01*
X012034Y013532D01*
X012054Y013534D01*
X012074Y013532D01*
X012092Y013526D01*
X012110Y013517D01*
X012125Y013505D01*
X012137Y013490D01*
X012146Y013472D01*
X012152Y013454D01*
X012154Y013434D01*
X012152Y013414D01*
X012146Y013396D01*
X012137Y013378D01*
X012125Y013363D01*
X012110Y013351D01*
X012092Y013342D01*
X012074Y013336D01*
X012054Y013334D01*
X012034Y013336D01*
X012016Y013342D01*
X011998Y013351D01*
X011983Y013363D01*
X011971Y013378D01*
X011962Y013396D01*
X011956Y013414D01*
X011954Y013434D01*
X011954Y013741D02*
X011956Y013761D01*
X011962Y013779D01*
X011971Y013797D01*
X011983Y013812D01*
X011998Y013824D01*
X012016Y013833D01*
X012034Y013839D01*
X012054Y013841D01*
X012074Y013839D01*
X012092Y013833D01*
X012110Y013824D01*
X012125Y013812D01*
X012137Y013797D01*
X012146Y013779D01*
X012152Y013761D01*
X012154Y013741D01*
X012152Y013721D01*
X012146Y013703D01*
X012137Y013685D01*
X012125Y013670D01*
X012110Y013658D01*
X012092Y013649D01*
X012074Y013643D01*
X012054Y013641D01*
X012034Y013643D01*
X012016Y013649D01*
X011998Y013658D01*
X011983Y013670D01*
X011971Y013685D01*
X011962Y013703D01*
X011956Y013721D01*
X011954Y013741D01*
X011954Y014048D02*
X011956Y014068D01*
X011962Y014086D01*
X011971Y014104D01*
X011983Y014119D01*
X011998Y014131D01*
X012016Y014140D01*
X012034Y014146D01*
X012054Y014148D01*
X012074Y014146D01*
X012092Y014140D01*
X012110Y014131D01*
X012125Y014119D01*
X012137Y014104D01*
X012146Y014086D01*
X012152Y014068D01*
X012154Y014048D01*
X012152Y014028D01*
X012146Y014010D01*
X012137Y013992D01*
X012125Y013977D01*
X012110Y013965D01*
X012092Y013956D01*
X012074Y013950D01*
X012054Y013948D01*
X012034Y013950D01*
X012016Y013956D01*
X011998Y013965D01*
X011983Y013977D01*
X011971Y013992D01*
X011962Y014010D01*
X011956Y014028D01*
X011954Y014048D01*
X011954Y014355D02*
X011956Y014375D01*
X011962Y014393D01*
X011971Y014411D01*
X011983Y014426D01*
X011998Y014438D01*
X012016Y014447D01*
X012034Y014453D01*
X012054Y014455D01*
X012074Y014453D01*
X012092Y014447D01*
X012110Y014438D01*
X012125Y014426D01*
X012137Y014411D01*
X012146Y014393D01*
X012152Y014375D01*
X012154Y014355D01*
X012152Y014335D01*
X012146Y014317D01*
X012137Y014299D01*
X012125Y014284D01*
X012110Y014272D01*
X012092Y014263D01*
X012074Y014257D01*
X012054Y014255D01*
X012034Y014257D01*
X012016Y014263D01*
X011998Y014272D01*
X011983Y014284D01*
X011971Y014299D01*
X011962Y014317D01*
X011956Y014335D01*
X011954Y014355D01*
X011954Y014662D02*
X011956Y014682D01*
X011962Y014700D01*
X011971Y014718D01*
X011983Y014733D01*
X011998Y014745D01*
X012016Y014754D01*
X012034Y014760D01*
X012054Y014762D01*
X012074Y014760D01*
X012092Y014754D01*
X012110Y014745D01*
X012125Y014733D01*
X012137Y014718D01*
X012146Y014700D01*
X012152Y014682D01*
X012154Y014662D01*
X012152Y014642D01*
X012146Y014624D01*
X012137Y014606D01*
X012125Y014591D01*
X012110Y014579D01*
X012092Y014570D01*
X012074Y014564D01*
X012054Y014562D01*
X012034Y014564D01*
X012016Y014570D01*
X011998Y014579D01*
X011983Y014591D01*
X011971Y014606D01*
X011962Y014624D01*
X011956Y014642D01*
X011954Y014662D01*
X011954Y014969D02*
X011956Y014989D01*
X011962Y015007D01*
X011971Y015025D01*
X011983Y015040D01*
X011998Y015052D01*
X012016Y015061D01*
X012034Y015067D01*
X012054Y015069D01*
X012074Y015067D01*
X012092Y015061D01*
X012110Y015052D01*
X012125Y015040D01*
X012137Y015025D01*
X012146Y015007D01*
X012152Y014989D01*
X012154Y014969D01*
X012152Y014949D01*
X012146Y014931D01*
X012137Y014913D01*
X012125Y014898D01*
X012110Y014886D01*
X012092Y014877D01*
X012074Y014871D01*
X012054Y014869D01*
X012034Y014871D01*
X012016Y014877D01*
X011998Y014886D01*
X011983Y014898D01*
X011971Y014913D01*
X011962Y014931D01*
X011956Y014949D01*
X011954Y014969D01*
X011954Y015277D02*
X011956Y015297D01*
X011962Y015315D01*
X011971Y015333D01*
X011983Y015348D01*
X011998Y015360D01*
X012016Y015369D01*
X012034Y015375D01*
X012054Y015377D01*
X012074Y015375D01*
X012092Y015369D01*
X012110Y015360D01*
X012125Y015348D01*
X012137Y015333D01*
X012146Y015315D01*
X012152Y015297D01*
X012154Y015277D01*
X012152Y015257D01*
X012146Y015239D01*
X012137Y015221D01*
X012125Y015206D01*
X012110Y015194D01*
X012092Y015185D01*
X012074Y015179D01*
X012054Y015177D01*
X012034Y015179D01*
X012016Y015185D01*
X011998Y015194D01*
X011983Y015206D01*
X011971Y015221D01*
X011962Y015239D01*
X011956Y015257D01*
X011954Y015277D01*
X011954Y015584D02*
X011956Y015604D01*
X011962Y015622D01*
X011971Y015640D01*
X011983Y015655D01*
X011998Y015667D01*
X012016Y015676D01*
X012034Y015682D01*
X012054Y015684D01*
X012074Y015682D01*
X012092Y015676D01*
X012110Y015667D01*
X012125Y015655D01*
X012137Y015640D01*
X012146Y015622D01*
X012152Y015604D01*
X012154Y015584D01*
X012152Y015564D01*
X012146Y015546D01*
X012137Y015528D01*
X012125Y015513D01*
X012110Y015501D01*
X012092Y015492D01*
X012074Y015486D01*
X012054Y015484D01*
X012034Y015486D01*
X012016Y015492D01*
X011998Y015501D01*
X011983Y015513D01*
X011971Y015528D01*
X011962Y015546D01*
X011956Y015564D01*
X011954Y015584D01*
X011954Y015891D02*
X011956Y015911D01*
X011962Y015929D01*
X011971Y015947D01*
X011983Y015962D01*
X011998Y015974D01*
X012016Y015983D01*
X012034Y015989D01*
X012054Y015991D01*
X012074Y015989D01*
X012092Y015983D01*
X012110Y015974D01*
X012125Y015962D01*
X012137Y015947D01*
X012146Y015929D01*
X012152Y015911D01*
X012154Y015891D01*
X012152Y015871D01*
X012146Y015853D01*
X012137Y015835D01*
X012125Y015820D01*
X012110Y015808D01*
X012092Y015799D01*
X012074Y015793D01*
X012054Y015791D01*
X012034Y015793D01*
X012016Y015799D01*
X011998Y015808D01*
X011983Y015820D01*
X011971Y015835D01*
X011962Y015853D01*
X011956Y015871D01*
X011954Y015891D01*
X019040Y015891D02*
X019042Y015911D01*
X019048Y015929D01*
X019057Y015947D01*
X019069Y015962D01*
X019084Y015974D01*
X019102Y015983D01*
X019120Y015989D01*
X019140Y015991D01*
X019160Y015989D01*
X019178Y015983D01*
X019196Y015974D01*
X019211Y015962D01*
X019223Y015947D01*
X019232Y015929D01*
X019238Y015911D01*
X019240Y015891D01*
X019238Y015871D01*
X019232Y015853D01*
X019223Y015835D01*
X019211Y015820D01*
X019196Y015808D01*
X019178Y015799D01*
X019160Y015793D01*
X019140Y015791D01*
X019120Y015793D01*
X019102Y015799D01*
X019084Y015808D01*
X019069Y015820D01*
X019057Y015835D01*
X019048Y015853D01*
X019042Y015871D01*
X019040Y015891D01*
X019040Y015584D02*
X019042Y015604D01*
X019048Y015622D01*
X019057Y015640D01*
X019069Y015655D01*
X019084Y015667D01*
X019102Y015676D01*
X019120Y015682D01*
X019140Y015684D01*
X019160Y015682D01*
X019178Y015676D01*
X019196Y015667D01*
X019211Y015655D01*
X019223Y015640D01*
X019232Y015622D01*
X019238Y015604D01*
X019240Y015584D01*
X019238Y015564D01*
X019232Y015546D01*
X019223Y015528D01*
X019211Y015513D01*
X019196Y015501D01*
X019178Y015492D01*
X019160Y015486D01*
X019140Y015484D01*
X019120Y015486D01*
X019102Y015492D01*
X019084Y015501D01*
X019069Y015513D01*
X019057Y015528D01*
X019048Y015546D01*
X019042Y015564D01*
X019040Y015584D01*
X019040Y015277D02*
X019042Y015297D01*
X019048Y015315D01*
X019057Y015333D01*
X019069Y015348D01*
X019084Y015360D01*
X019102Y015369D01*
X019120Y015375D01*
X019140Y015377D01*
X019160Y015375D01*
X019178Y015369D01*
X019196Y015360D01*
X019211Y015348D01*
X019223Y015333D01*
X019232Y015315D01*
X019238Y015297D01*
X019240Y015277D01*
X019238Y015257D01*
X019232Y015239D01*
X019223Y015221D01*
X019211Y015206D01*
X019196Y015194D01*
X019178Y015185D01*
X019160Y015179D01*
X019140Y015177D01*
X019120Y015179D01*
X019102Y015185D01*
X019084Y015194D01*
X019069Y015206D01*
X019057Y015221D01*
X019048Y015239D01*
X019042Y015257D01*
X019040Y015277D01*
X019040Y014969D02*
X019042Y014989D01*
X019048Y015007D01*
X019057Y015025D01*
X019069Y015040D01*
X019084Y015052D01*
X019102Y015061D01*
X019120Y015067D01*
X019140Y015069D01*
X019160Y015067D01*
X019178Y015061D01*
X019196Y015052D01*
X019211Y015040D01*
X019223Y015025D01*
X019232Y015007D01*
X019238Y014989D01*
X019240Y014969D01*
X019238Y014949D01*
X019232Y014931D01*
X019223Y014913D01*
X019211Y014898D01*
X019196Y014886D01*
X019178Y014877D01*
X019160Y014871D01*
X019140Y014869D01*
X019120Y014871D01*
X019102Y014877D01*
X019084Y014886D01*
X019069Y014898D01*
X019057Y014913D01*
X019048Y014931D01*
X019042Y014949D01*
X019040Y014969D01*
X019040Y014662D02*
X019042Y014682D01*
X019048Y014700D01*
X019057Y014718D01*
X019069Y014733D01*
X019084Y014745D01*
X019102Y014754D01*
X019120Y014760D01*
X019140Y014762D01*
X019160Y014760D01*
X019178Y014754D01*
X019196Y014745D01*
X019211Y014733D01*
X019223Y014718D01*
X019232Y014700D01*
X019238Y014682D01*
X019240Y014662D01*
X019238Y014642D01*
X019232Y014624D01*
X019223Y014606D01*
X019211Y014591D01*
X019196Y014579D01*
X019178Y014570D01*
X019160Y014564D01*
X019140Y014562D01*
X019120Y014564D01*
X019102Y014570D01*
X019084Y014579D01*
X019069Y014591D01*
X019057Y014606D01*
X019048Y014624D01*
X019042Y014642D01*
X019040Y014662D01*
X019040Y014355D02*
X019042Y014375D01*
X019048Y014393D01*
X019057Y014411D01*
X019069Y014426D01*
X019084Y014438D01*
X019102Y014447D01*
X019120Y014453D01*
X019140Y014455D01*
X019160Y014453D01*
X019178Y014447D01*
X019196Y014438D01*
X019211Y014426D01*
X019223Y014411D01*
X019232Y014393D01*
X019238Y014375D01*
X019240Y014355D01*
X019238Y014335D01*
X019232Y014317D01*
X019223Y014299D01*
X019211Y014284D01*
X019196Y014272D01*
X019178Y014263D01*
X019160Y014257D01*
X019140Y014255D01*
X019120Y014257D01*
X019102Y014263D01*
X019084Y014272D01*
X019069Y014284D01*
X019057Y014299D01*
X019048Y014317D01*
X019042Y014335D01*
X019040Y014355D01*
X019040Y014048D02*
X019042Y014068D01*
X019048Y014086D01*
X019057Y014104D01*
X019069Y014119D01*
X019084Y014131D01*
X019102Y014140D01*
X019120Y014146D01*
X019140Y014148D01*
X019160Y014146D01*
X019178Y014140D01*
X019196Y014131D01*
X019211Y014119D01*
X019223Y014104D01*
X019232Y014086D01*
X019238Y014068D01*
X019240Y014048D01*
X019238Y014028D01*
X019232Y014010D01*
X019223Y013992D01*
X019211Y013977D01*
X019196Y013965D01*
X019178Y013956D01*
X019160Y013950D01*
X019140Y013948D01*
X019120Y013950D01*
X019102Y013956D01*
X019084Y013965D01*
X019069Y013977D01*
X019057Y013992D01*
X019048Y014010D01*
X019042Y014028D01*
X019040Y014048D01*
X019040Y013741D02*
X019042Y013761D01*
X019048Y013779D01*
X019057Y013797D01*
X019069Y013812D01*
X019084Y013824D01*
X019102Y013833D01*
X019120Y013839D01*
X019140Y013841D01*
X019160Y013839D01*
X019178Y013833D01*
X019196Y013824D01*
X019211Y013812D01*
X019223Y013797D01*
X019232Y013779D01*
X019238Y013761D01*
X019240Y013741D01*
X019238Y013721D01*
X019232Y013703D01*
X019223Y013685D01*
X019211Y013670D01*
X019196Y013658D01*
X019178Y013649D01*
X019160Y013643D01*
X019140Y013641D01*
X019120Y013643D01*
X019102Y013649D01*
X019084Y013658D01*
X019069Y013670D01*
X019057Y013685D01*
X019048Y013703D01*
X019042Y013721D01*
X019040Y013741D01*
X019040Y013434D02*
X019042Y013454D01*
X019048Y013472D01*
X019057Y013490D01*
X019069Y013505D01*
X019084Y013517D01*
X019102Y013526D01*
X019120Y013532D01*
X019140Y013534D01*
X019160Y013532D01*
X019178Y013526D01*
X019196Y013517D01*
X019211Y013505D01*
X019223Y013490D01*
X019232Y013472D01*
X019238Y013454D01*
X019240Y013434D01*
X019238Y013414D01*
X019232Y013396D01*
X019223Y013378D01*
X019211Y013363D01*
X019196Y013351D01*
X019178Y013342D01*
X019160Y013336D01*
X019140Y013334D01*
X019120Y013336D01*
X019102Y013342D01*
X019084Y013351D01*
X019069Y013363D01*
X019057Y013378D01*
X019048Y013396D01*
X019042Y013414D01*
X019040Y013434D01*
X019040Y013127D02*
X019042Y013147D01*
X019048Y013165D01*
X019057Y013183D01*
X019069Y013198D01*
X019084Y013210D01*
X019102Y013219D01*
X019120Y013225D01*
X019140Y013227D01*
X019160Y013225D01*
X019178Y013219D01*
X019196Y013210D01*
X019211Y013198D01*
X019223Y013183D01*
X019232Y013165D01*
X019238Y013147D01*
X019240Y013127D01*
X019238Y013107D01*
X019232Y013089D01*
X019223Y013071D01*
X019211Y013056D01*
X019196Y013044D01*
X019178Y013035D01*
X019160Y013029D01*
X019140Y013027D01*
X019120Y013029D01*
X019102Y013035D01*
X019084Y013044D01*
X019069Y013056D01*
X019057Y013071D01*
X019048Y013089D01*
X019042Y013107D01*
X019040Y013127D01*
X019040Y012536D02*
X019042Y012556D01*
X019048Y012574D01*
X019057Y012592D01*
X019069Y012607D01*
X019084Y012619D01*
X019102Y012628D01*
X019120Y012634D01*
X019140Y012636D01*
X019160Y012634D01*
X019178Y012628D01*
X019196Y012619D01*
X019211Y012607D01*
X019223Y012592D01*
X019232Y012574D01*
X019238Y012556D01*
X019240Y012536D01*
X019238Y012516D01*
X019232Y012498D01*
X019223Y012480D01*
X019211Y012465D01*
X019196Y012453D01*
X019178Y012444D01*
X019160Y012438D01*
X019140Y012436D01*
X019120Y012438D01*
X019102Y012444D01*
X019084Y012453D01*
X019069Y012465D01*
X019057Y012480D01*
X019048Y012498D01*
X019042Y012516D01*
X019040Y012536D01*
X019040Y011946D02*
X019042Y011966D01*
X019048Y011984D01*
X019057Y012002D01*
X019069Y012017D01*
X019084Y012029D01*
X019102Y012038D01*
X019120Y012044D01*
X019140Y012046D01*
X019160Y012044D01*
X019178Y012038D01*
X019196Y012029D01*
X019211Y012017D01*
X019223Y012002D01*
X019232Y011984D01*
X019238Y011966D01*
X019240Y011946D01*
X019238Y011926D01*
X019232Y011908D01*
X019223Y011890D01*
X019211Y011875D01*
X019196Y011863D01*
X019178Y011854D01*
X019160Y011848D01*
X019140Y011846D01*
X019120Y011848D01*
X019102Y011854D01*
X019084Y011863D01*
X019069Y011875D01*
X019057Y011890D01*
X019048Y011908D01*
X019042Y011926D01*
X019040Y011946D01*
X019040Y011355D02*
X019042Y011375D01*
X019048Y011393D01*
X019057Y011411D01*
X019069Y011426D01*
X019084Y011438D01*
X019102Y011447D01*
X019120Y011453D01*
X019140Y011455D01*
X019160Y011453D01*
X019178Y011447D01*
X019196Y011438D01*
X019211Y011426D01*
X019223Y011411D01*
X019232Y011393D01*
X019238Y011375D01*
X019240Y011355D01*
X019238Y011335D01*
X019232Y011317D01*
X019223Y011299D01*
X019211Y011284D01*
X019196Y011272D01*
X019178Y011263D01*
X019160Y011257D01*
X019140Y011255D01*
X019120Y011257D01*
X019102Y011263D01*
X019084Y011272D01*
X019069Y011284D01*
X019057Y011299D01*
X019048Y011317D01*
X019042Y011335D01*
X019040Y011355D01*
X019040Y010686D02*
X019042Y010706D01*
X019048Y010724D01*
X019057Y010742D01*
X019069Y010757D01*
X019084Y010769D01*
X019102Y010778D01*
X019120Y010784D01*
X019140Y010786D01*
X019160Y010784D01*
X019178Y010778D01*
X019196Y010769D01*
X019211Y010757D01*
X019223Y010742D01*
X019232Y010724D01*
X019238Y010706D01*
X019240Y010686D01*
X019238Y010666D01*
X019232Y010648D01*
X019223Y010630D01*
X019211Y010615D01*
X019196Y010603D01*
X019178Y010594D01*
X019160Y010588D01*
X019140Y010586D01*
X019120Y010588D01*
X019102Y010594D01*
X019084Y010603D01*
X019069Y010615D01*
X019057Y010630D01*
X019048Y010648D01*
X019042Y010666D01*
X019040Y010686D01*
X019040Y010292D02*
X019042Y010312D01*
X019048Y010330D01*
X019057Y010348D01*
X019069Y010363D01*
X019084Y010375D01*
X019102Y010384D01*
X019120Y010390D01*
X019140Y010392D01*
X019160Y010390D01*
X019178Y010384D01*
X019196Y010375D01*
X019211Y010363D01*
X019223Y010348D01*
X019232Y010330D01*
X019238Y010312D01*
X019240Y010292D01*
X019238Y010272D01*
X019232Y010254D01*
X019223Y010236D01*
X019211Y010221D01*
X019196Y010209D01*
X019178Y010200D01*
X019160Y010194D01*
X019140Y010192D01*
X019120Y010194D01*
X019102Y010200D01*
X019084Y010209D01*
X019069Y010221D01*
X019057Y010236D01*
X019048Y010254D01*
X019042Y010272D01*
X019040Y010292D01*
X019040Y009899D02*
X019042Y009919D01*
X019048Y009937D01*
X019057Y009955D01*
X019069Y009970D01*
X019084Y009982D01*
X019102Y009991D01*
X019120Y009997D01*
X019140Y009999D01*
X019160Y009997D01*
X019178Y009991D01*
X019196Y009982D01*
X019211Y009970D01*
X019223Y009955D01*
X019232Y009937D01*
X019238Y009919D01*
X019240Y009899D01*
X019238Y009879D01*
X019232Y009861D01*
X019223Y009843D01*
X019211Y009828D01*
X019196Y009816D01*
X019178Y009807D01*
X019160Y009801D01*
X019140Y009799D01*
X019120Y009801D01*
X019102Y009807D01*
X019084Y009816D01*
X019069Y009828D01*
X019057Y009843D01*
X019048Y009861D01*
X019042Y009879D01*
X019040Y009899D01*
X019040Y009505D02*
X019042Y009525D01*
X019048Y009543D01*
X019057Y009561D01*
X019069Y009576D01*
X019084Y009588D01*
X019102Y009597D01*
X019120Y009603D01*
X019140Y009605D01*
X019160Y009603D01*
X019178Y009597D01*
X019196Y009588D01*
X019211Y009576D01*
X019223Y009561D01*
X019232Y009543D01*
X019238Y009525D01*
X019240Y009505D01*
X019238Y009485D01*
X019232Y009467D01*
X019223Y009449D01*
X019211Y009434D01*
X019196Y009422D01*
X019178Y009413D01*
X019160Y009407D01*
X019140Y009405D01*
X019120Y009407D01*
X019102Y009413D01*
X019084Y009422D01*
X019069Y009434D01*
X019057Y009449D01*
X019048Y009467D01*
X019042Y009485D01*
X019040Y009505D01*
X026127Y009505D02*
X026129Y009525D01*
X026135Y009543D01*
X026144Y009561D01*
X026156Y009576D01*
X026171Y009588D01*
X026189Y009597D01*
X026207Y009603D01*
X026227Y009605D01*
X026247Y009603D01*
X026265Y009597D01*
X026283Y009588D01*
X026298Y009576D01*
X026310Y009561D01*
X026319Y009543D01*
X026325Y009525D01*
X026327Y009505D01*
X026325Y009485D01*
X026319Y009467D01*
X026310Y009449D01*
X026298Y009434D01*
X026283Y009422D01*
X026265Y009413D01*
X026247Y009407D01*
X026227Y009405D01*
X026207Y009407D01*
X026189Y009413D01*
X026171Y009422D01*
X026156Y009434D01*
X026144Y009449D01*
X026135Y009467D01*
X026129Y009485D01*
X026127Y009505D01*
X026127Y009899D02*
X026129Y009919D01*
X026135Y009937D01*
X026144Y009955D01*
X026156Y009970D01*
X026171Y009982D01*
X026189Y009991D01*
X026207Y009997D01*
X026227Y009999D01*
X026247Y009997D01*
X026265Y009991D01*
X026283Y009982D01*
X026298Y009970D01*
X026310Y009955D01*
X026319Y009937D01*
X026325Y009919D01*
X026327Y009899D01*
X026325Y009879D01*
X026319Y009861D01*
X026310Y009843D01*
X026298Y009828D01*
X026283Y009816D01*
X026265Y009807D01*
X026247Y009801D01*
X026227Y009799D01*
X026207Y009801D01*
X026189Y009807D01*
X026171Y009816D01*
X026156Y009828D01*
X026144Y009843D01*
X026135Y009861D01*
X026129Y009879D01*
X026127Y009899D01*
X026127Y010292D02*
X026129Y010312D01*
X026135Y010330D01*
X026144Y010348D01*
X026156Y010363D01*
X026171Y010375D01*
X026189Y010384D01*
X026207Y010390D01*
X026227Y010392D01*
X026247Y010390D01*
X026265Y010384D01*
X026283Y010375D01*
X026298Y010363D01*
X026310Y010348D01*
X026319Y010330D01*
X026325Y010312D01*
X026327Y010292D01*
X026325Y010272D01*
X026319Y010254D01*
X026310Y010236D01*
X026298Y010221D01*
X026283Y010209D01*
X026265Y010200D01*
X026247Y010194D01*
X026227Y010192D01*
X026207Y010194D01*
X026189Y010200D01*
X026171Y010209D01*
X026156Y010221D01*
X026144Y010236D01*
X026135Y010254D01*
X026129Y010272D01*
X026127Y010292D01*
X026127Y010686D02*
X026129Y010706D01*
X026135Y010724D01*
X026144Y010742D01*
X026156Y010757D01*
X026171Y010769D01*
X026189Y010778D01*
X026207Y010784D01*
X026227Y010786D01*
X026247Y010784D01*
X026265Y010778D01*
X026283Y010769D01*
X026298Y010757D01*
X026310Y010742D01*
X026319Y010724D01*
X026325Y010706D01*
X026327Y010686D01*
X026325Y010666D01*
X026319Y010648D01*
X026310Y010630D01*
X026298Y010615D01*
X026283Y010603D01*
X026265Y010594D01*
X026247Y010588D01*
X026227Y010586D01*
X026207Y010588D01*
X026189Y010594D01*
X026171Y010603D01*
X026156Y010615D01*
X026144Y010630D01*
X026135Y010648D01*
X026129Y010666D01*
X026127Y010686D01*
X026127Y011355D02*
X026129Y011375D01*
X026135Y011393D01*
X026144Y011411D01*
X026156Y011426D01*
X026171Y011438D01*
X026189Y011447D01*
X026207Y011453D01*
X026227Y011455D01*
X026247Y011453D01*
X026265Y011447D01*
X026283Y011438D01*
X026298Y011426D01*
X026310Y011411D01*
X026319Y011393D01*
X026325Y011375D01*
X026327Y011355D01*
X026325Y011335D01*
X026319Y011317D01*
X026310Y011299D01*
X026298Y011284D01*
X026283Y011272D01*
X026265Y011263D01*
X026247Y011257D01*
X026227Y011255D01*
X026207Y011257D01*
X026189Y011263D01*
X026171Y011272D01*
X026156Y011284D01*
X026144Y011299D01*
X026135Y011317D01*
X026129Y011335D01*
X026127Y011355D01*
X026127Y011946D02*
X026129Y011966D01*
X026135Y011984D01*
X026144Y012002D01*
X026156Y012017D01*
X026171Y012029D01*
X026189Y012038D01*
X026207Y012044D01*
X026227Y012046D01*
X026247Y012044D01*
X026265Y012038D01*
X026283Y012029D01*
X026298Y012017D01*
X026310Y012002D01*
X026319Y011984D01*
X026325Y011966D01*
X026327Y011946D01*
X026325Y011926D01*
X026319Y011908D01*
X026310Y011890D01*
X026298Y011875D01*
X026283Y011863D01*
X026265Y011854D01*
X026247Y011848D01*
X026227Y011846D01*
X026207Y011848D01*
X026189Y011854D01*
X026171Y011863D01*
X026156Y011875D01*
X026144Y011890D01*
X026135Y011908D01*
X026129Y011926D01*
X026127Y011946D01*
X026127Y012536D02*
X026129Y012556D01*
X026135Y012574D01*
X026144Y012592D01*
X026156Y012607D01*
X026171Y012619D01*
X026189Y012628D01*
X026207Y012634D01*
X026227Y012636D01*
X026247Y012634D01*
X026265Y012628D01*
X026283Y012619D01*
X026298Y012607D01*
X026310Y012592D01*
X026319Y012574D01*
X026325Y012556D01*
X026327Y012536D01*
X026325Y012516D01*
X026319Y012498D01*
X026310Y012480D01*
X026298Y012465D01*
X026283Y012453D01*
X026265Y012444D01*
X026247Y012438D01*
X026227Y012436D01*
X026207Y012438D01*
X026189Y012444D01*
X026171Y012453D01*
X026156Y012465D01*
X026144Y012480D01*
X026135Y012498D01*
X026129Y012516D01*
X026127Y012536D01*
X026127Y013127D02*
X026129Y013147D01*
X026135Y013165D01*
X026144Y013183D01*
X026156Y013198D01*
X026171Y013210D01*
X026189Y013219D01*
X026207Y013225D01*
X026227Y013227D01*
X026247Y013225D01*
X026265Y013219D01*
X026283Y013210D01*
X026298Y013198D01*
X026310Y013183D01*
X026319Y013165D01*
X026325Y013147D01*
X026327Y013127D01*
X026325Y013107D01*
X026319Y013089D01*
X026310Y013071D01*
X026298Y013056D01*
X026283Y013044D01*
X026265Y013035D01*
X026247Y013029D01*
X026227Y013027D01*
X026207Y013029D01*
X026189Y013035D01*
X026171Y013044D01*
X026156Y013056D01*
X026144Y013071D01*
X026135Y013089D01*
X026129Y013107D01*
X026127Y013127D01*
X026127Y013434D02*
X026129Y013454D01*
X026135Y013472D01*
X026144Y013490D01*
X026156Y013505D01*
X026171Y013517D01*
X026189Y013526D01*
X026207Y013532D01*
X026227Y013534D01*
X026247Y013532D01*
X026265Y013526D01*
X026283Y013517D01*
X026298Y013505D01*
X026310Y013490D01*
X026319Y013472D01*
X026325Y013454D01*
X026327Y013434D01*
X026325Y013414D01*
X026319Y013396D01*
X026310Y013378D01*
X026298Y013363D01*
X026283Y013351D01*
X026265Y013342D01*
X026247Y013336D01*
X026227Y013334D01*
X026207Y013336D01*
X026189Y013342D01*
X026171Y013351D01*
X026156Y013363D01*
X026144Y013378D01*
X026135Y013396D01*
X026129Y013414D01*
X026127Y013434D01*
X026127Y013741D02*
X026129Y013761D01*
X026135Y013779D01*
X026144Y013797D01*
X026156Y013812D01*
X026171Y013824D01*
X026189Y013833D01*
X026207Y013839D01*
X026227Y013841D01*
X026247Y013839D01*
X026265Y013833D01*
X026283Y013824D01*
X026298Y013812D01*
X026310Y013797D01*
X026319Y013779D01*
X026325Y013761D01*
X026327Y013741D01*
X026325Y013721D01*
X026319Y013703D01*
X026310Y013685D01*
X026298Y013670D01*
X026283Y013658D01*
X026265Y013649D01*
X026247Y013643D01*
X026227Y013641D01*
X026207Y013643D01*
X026189Y013649D01*
X026171Y013658D01*
X026156Y013670D01*
X026144Y013685D01*
X026135Y013703D01*
X026129Y013721D01*
X026127Y013741D01*
X026127Y014048D02*
X026129Y014068D01*
X026135Y014086D01*
X026144Y014104D01*
X026156Y014119D01*
X026171Y014131D01*
X026189Y014140D01*
X026207Y014146D01*
X026227Y014148D01*
X026247Y014146D01*
X026265Y014140D01*
X026283Y014131D01*
X026298Y014119D01*
X026310Y014104D01*
X026319Y014086D01*
X026325Y014068D01*
X026327Y014048D01*
X026325Y014028D01*
X026319Y014010D01*
X026310Y013992D01*
X026298Y013977D01*
X026283Y013965D01*
X026265Y013956D01*
X026247Y013950D01*
X026227Y013948D01*
X026207Y013950D01*
X026189Y013956D01*
X026171Y013965D01*
X026156Y013977D01*
X026144Y013992D01*
X026135Y014010D01*
X026129Y014028D01*
X026127Y014048D01*
X026127Y014355D02*
X026129Y014375D01*
X026135Y014393D01*
X026144Y014411D01*
X026156Y014426D01*
X026171Y014438D01*
X026189Y014447D01*
X026207Y014453D01*
X026227Y014455D01*
X026247Y014453D01*
X026265Y014447D01*
X026283Y014438D01*
X026298Y014426D01*
X026310Y014411D01*
X026319Y014393D01*
X026325Y014375D01*
X026327Y014355D01*
X026325Y014335D01*
X026319Y014317D01*
X026310Y014299D01*
X026298Y014284D01*
X026283Y014272D01*
X026265Y014263D01*
X026247Y014257D01*
X026227Y014255D01*
X026207Y014257D01*
X026189Y014263D01*
X026171Y014272D01*
X026156Y014284D01*
X026144Y014299D01*
X026135Y014317D01*
X026129Y014335D01*
X026127Y014355D01*
X026127Y014662D02*
X026129Y014682D01*
X026135Y014700D01*
X026144Y014718D01*
X026156Y014733D01*
X026171Y014745D01*
X026189Y014754D01*
X026207Y014760D01*
X026227Y014762D01*
X026247Y014760D01*
X026265Y014754D01*
X026283Y014745D01*
X026298Y014733D01*
X026310Y014718D01*
X026319Y014700D01*
X026325Y014682D01*
X026327Y014662D01*
X026325Y014642D01*
X026319Y014624D01*
X026310Y014606D01*
X026298Y014591D01*
X026283Y014579D01*
X026265Y014570D01*
X026247Y014564D01*
X026227Y014562D01*
X026207Y014564D01*
X026189Y014570D01*
X026171Y014579D01*
X026156Y014591D01*
X026144Y014606D01*
X026135Y014624D01*
X026129Y014642D01*
X026127Y014662D01*
X026127Y014969D02*
X026129Y014989D01*
X026135Y015007D01*
X026144Y015025D01*
X026156Y015040D01*
X026171Y015052D01*
X026189Y015061D01*
X026207Y015067D01*
X026227Y015069D01*
X026247Y015067D01*
X026265Y015061D01*
X026283Y015052D01*
X026298Y015040D01*
X026310Y015025D01*
X026319Y015007D01*
X026325Y014989D01*
X026327Y014969D01*
X026325Y014949D01*
X026319Y014931D01*
X026310Y014913D01*
X026298Y014898D01*
X026283Y014886D01*
X026265Y014877D01*
X026247Y014871D01*
X026227Y014869D01*
X026207Y014871D01*
X026189Y014877D01*
X026171Y014886D01*
X026156Y014898D01*
X026144Y014913D01*
X026135Y014931D01*
X026129Y014949D01*
X026127Y014969D01*
X026127Y015277D02*
X026129Y015297D01*
X026135Y015315D01*
X026144Y015333D01*
X026156Y015348D01*
X026171Y015360D01*
X026189Y015369D01*
X026207Y015375D01*
X026227Y015377D01*
X026247Y015375D01*
X026265Y015369D01*
X026283Y015360D01*
X026298Y015348D01*
X026310Y015333D01*
X026319Y015315D01*
X026325Y015297D01*
X026327Y015277D01*
X026325Y015257D01*
X026319Y015239D01*
X026310Y015221D01*
X026298Y015206D01*
X026283Y015194D01*
X026265Y015185D01*
X026247Y015179D01*
X026227Y015177D01*
X026207Y015179D01*
X026189Y015185D01*
X026171Y015194D01*
X026156Y015206D01*
X026144Y015221D01*
X026135Y015239D01*
X026129Y015257D01*
X026127Y015277D01*
X026127Y015584D02*
X026129Y015604D01*
X026135Y015622D01*
X026144Y015640D01*
X026156Y015655D01*
X026171Y015667D01*
X026189Y015676D01*
X026207Y015682D01*
X026227Y015684D01*
X026247Y015682D01*
X026265Y015676D01*
X026283Y015667D01*
X026298Y015655D01*
X026310Y015640D01*
X026319Y015622D01*
X026325Y015604D01*
X026327Y015584D01*
X026325Y015564D01*
X026319Y015546D01*
X026310Y015528D01*
X026298Y015513D01*
X026283Y015501D01*
X026265Y015492D01*
X026247Y015486D01*
X026227Y015484D01*
X026207Y015486D01*
X026189Y015492D01*
X026171Y015501D01*
X026156Y015513D01*
X026144Y015528D01*
X026135Y015546D01*
X026129Y015564D01*
X026127Y015584D01*
X026127Y015891D02*
X026129Y015911D01*
X026135Y015929D01*
X026144Y015947D01*
X026156Y015962D01*
X026171Y015974D01*
X026189Y015983D01*
X026207Y015989D01*
X026227Y015991D01*
X026247Y015989D01*
X026265Y015983D01*
X026283Y015974D01*
X026298Y015962D01*
X026310Y015947D01*
X026319Y015929D01*
X026325Y015911D01*
X026327Y015891D01*
X026325Y015871D01*
X026319Y015853D01*
X026310Y015835D01*
X026298Y015820D01*
X026283Y015808D01*
X026265Y015799D01*
X026247Y015793D01*
X026227Y015791D01*
X026207Y015793D01*
X026189Y015799D01*
X026171Y015808D01*
X026156Y015820D01*
X026144Y015835D01*
X026135Y015853D01*
X026129Y015871D01*
X026127Y015891D01*
X033213Y015891D02*
X033215Y015911D01*
X033221Y015929D01*
X033230Y015947D01*
X033242Y015962D01*
X033257Y015974D01*
X033275Y015983D01*
X033293Y015989D01*
X033313Y015991D01*
X033333Y015989D01*
X033351Y015983D01*
X033369Y015974D01*
X033384Y015962D01*
X033396Y015947D01*
X033405Y015929D01*
X033411Y015911D01*
X033413Y015891D01*
X033411Y015871D01*
X033405Y015853D01*
X033396Y015835D01*
X033384Y015820D01*
X033369Y015808D01*
X033351Y015799D01*
X033333Y015793D01*
X033313Y015791D01*
X033293Y015793D01*
X033275Y015799D01*
X033257Y015808D01*
X033242Y015820D01*
X033230Y015835D01*
X033221Y015853D01*
X033215Y015871D01*
X033213Y015891D01*
X033213Y015584D02*
X033215Y015604D01*
X033221Y015622D01*
X033230Y015640D01*
X033242Y015655D01*
X033257Y015667D01*
X033275Y015676D01*
X033293Y015682D01*
X033313Y015684D01*
X033333Y015682D01*
X033351Y015676D01*
X033369Y015667D01*
X033384Y015655D01*
X033396Y015640D01*
X033405Y015622D01*
X033411Y015604D01*
X033413Y015584D01*
X033411Y015564D01*
X033405Y015546D01*
X033396Y015528D01*
X033384Y015513D01*
X033369Y015501D01*
X033351Y015492D01*
X033333Y015486D01*
X033313Y015484D01*
X033293Y015486D01*
X033275Y015492D01*
X033257Y015501D01*
X033242Y015513D01*
X033230Y015528D01*
X033221Y015546D01*
X033215Y015564D01*
X033213Y015584D01*
X033213Y015277D02*
X033215Y015297D01*
X033221Y015315D01*
X033230Y015333D01*
X033242Y015348D01*
X033257Y015360D01*
X033275Y015369D01*
X033293Y015375D01*
X033313Y015377D01*
X033333Y015375D01*
X033351Y015369D01*
X033369Y015360D01*
X033384Y015348D01*
X033396Y015333D01*
X033405Y015315D01*
X033411Y015297D01*
X033413Y015277D01*
X033411Y015257D01*
X033405Y015239D01*
X033396Y015221D01*
X033384Y015206D01*
X033369Y015194D01*
X033351Y015185D01*
X033333Y015179D01*
X033313Y015177D01*
X033293Y015179D01*
X033275Y015185D01*
X033257Y015194D01*
X033242Y015206D01*
X033230Y015221D01*
X033221Y015239D01*
X033215Y015257D01*
X033213Y015277D01*
X033213Y014969D02*
X033215Y014989D01*
X033221Y015007D01*
X033230Y015025D01*
X033242Y015040D01*
X033257Y015052D01*
X033275Y015061D01*
X033293Y015067D01*
X033313Y015069D01*
X033333Y015067D01*
X033351Y015061D01*
X033369Y015052D01*
X033384Y015040D01*
X033396Y015025D01*
X033405Y015007D01*
X033411Y014989D01*
X033413Y014969D01*
X033411Y014949D01*
X033405Y014931D01*
X033396Y014913D01*
X033384Y014898D01*
X033369Y014886D01*
X033351Y014877D01*
X033333Y014871D01*
X033313Y014869D01*
X033293Y014871D01*
X033275Y014877D01*
X033257Y014886D01*
X033242Y014898D01*
X033230Y014913D01*
X033221Y014931D01*
X033215Y014949D01*
X033213Y014969D01*
X033213Y014662D02*
X033215Y014682D01*
X033221Y014700D01*
X033230Y014718D01*
X033242Y014733D01*
X033257Y014745D01*
X033275Y014754D01*
X033293Y014760D01*
X033313Y014762D01*
X033333Y014760D01*
X033351Y014754D01*
X033369Y014745D01*
X033384Y014733D01*
X033396Y014718D01*
X033405Y014700D01*
X033411Y014682D01*
X033413Y014662D01*
X033411Y014642D01*
X033405Y014624D01*
X033396Y014606D01*
X033384Y014591D01*
X033369Y014579D01*
X033351Y014570D01*
X033333Y014564D01*
X033313Y014562D01*
X033293Y014564D01*
X033275Y014570D01*
X033257Y014579D01*
X033242Y014591D01*
X033230Y014606D01*
X033221Y014624D01*
X033215Y014642D01*
X033213Y014662D01*
X033213Y014355D02*
X033215Y014375D01*
X033221Y014393D01*
X033230Y014411D01*
X033242Y014426D01*
X033257Y014438D01*
X033275Y014447D01*
X033293Y014453D01*
X033313Y014455D01*
X033333Y014453D01*
X033351Y014447D01*
X033369Y014438D01*
X033384Y014426D01*
X033396Y014411D01*
X033405Y014393D01*
X033411Y014375D01*
X033413Y014355D01*
X033411Y014335D01*
X033405Y014317D01*
X033396Y014299D01*
X033384Y014284D01*
X033369Y014272D01*
X033351Y014263D01*
X033333Y014257D01*
X033313Y014255D01*
X033293Y014257D01*
X033275Y014263D01*
X033257Y014272D01*
X033242Y014284D01*
X033230Y014299D01*
X033221Y014317D01*
X033215Y014335D01*
X033213Y014355D01*
X033213Y014048D02*
X033215Y014068D01*
X033221Y014086D01*
X033230Y014104D01*
X033242Y014119D01*
X033257Y014131D01*
X033275Y014140D01*
X033293Y014146D01*
X033313Y014148D01*
X033333Y014146D01*
X033351Y014140D01*
X033369Y014131D01*
X033384Y014119D01*
X033396Y014104D01*
X033405Y014086D01*
X033411Y014068D01*
X033413Y014048D01*
X033411Y014028D01*
X033405Y014010D01*
X033396Y013992D01*
X033384Y013977D01*
X033369Y013965D01*
X033351Y013956D01*
X033333Y013950D01*
X033313Y013948D01*
X033293Y013950D01*
X033275Y013956D01*
X033257Y013965D01*
X033242Y013977D01*
X033230Y013992D01*
X033221Y014010D01*
X033215Y014028D01*
X033213Y014048D01*
X033213Y013741D02*
X033215Y013761D01*
X033221Y013779D01*
X033230Y013797D01*
X033242Y013812D01*
X033257Y013824D01*
X033275Y013833D01*
X033293Y013839D01*
X033313Y013841D01*
X033333Y013839D01*
X033351Y013833D01*
X033369Y013824D01*
X033384Y013812D01*
X033396Y013797D01*
X033405Y013779D01*
X033411Y013761D01*
X033413Y013741D01*
X033411Y013721D01*
X033405Y013703D01*
X033396Y013685D01*
X033384Y013670D01*
X033369Y013658D01*
X033351Y013649D01*
X033333Y013643D01*
X033313Y013641D01*
X033293Y013643D01*
X033275Y013649D01*
X033257Y013658D01*
X033242Y013670D01*
X033230Y013685D01*
X033221Y013703D01*
X033215Y013721D01*
X033213Y013741D01*
X033213Y013434D02*
X033215Y013454D01*
X033221Y013472D01*
X033230Y013490D01*
X033242Y013505D01*
X033257Y013517D01*
X033275Y013526D01*
X033293Y013532D01*
X033313Y013534D01*
X033333Y013532D01*
X033351Y013526D01*
X033369Y013517D01*
X033384Y013505D01*
X033396Y013490D01*
X033405Y013472D01*
X033411Y013454D01*
X033413Y013434D01*
X033411Y013414D01*
X033405Y013396D01*
X033396Y013378D01*
X033384Y013363D01*
X033369Y013351D01*
X033351Y013342D01*
X033333Y013336D01*
X033313Y013334D01*
X033293Y013336D01*
X033275Y013342D01*
X033257Y013351D01*
X033242Y013363D01*
X033230Y013378D01*
X033221Y013396D01*
X033215Y013414D01*
X033213Y013434D01*
X033213Y013127D02*
X033215Y013147D01*
X033221Y013165D01*
X033230Y013183D01*
X033242Y013198D01*
X033257Y013210D01*
X033275Y013219D01*
X033293Y013225D01*
X033313Y013227D01*
X033333Y013225D01*
X033351Y013219D01*
X033369Y013210D01*
X033384Y013198D01*
X033396Y013183D01*
X033405Y013165D01*
X033411Y013147D01*
X033413Y013127D01*
X033411Y013107D01*
X033405Y013089D01*
X033396Y013071D01*
X033384Y013056D01*
X033369Y013044D01*
X033351Y013035D01*
X033333Y013029D01*
X033313Y013027D01*
X033293Y013029D01*
X033275Y013035D01*
X033257Y013044D01*
X033242Y013056D01*
X033230Y013071D01*
X033221Y013089D01*
X033215Y013107D01*
X033213Y013127D01*
X033213Y012536D02*
X033215Y012556D01*
X033221Y012574D01*
X033230Y012592D01*
X033242Y012607D01*
X033257Y012619D01*
X033275Y012628D01*
X033293Y012634D01*
X033313Y012636D01*
X033333Y012634D01*
X033351Y012628D01*
X033369Y012619D01*
X033384Y012607D01*
X033396Y012592D01*
X033405Y012574D01*
X033411Y012556D01*
X033413Y012536D01*
X033411Y012516D01*
X033405Y012498D01*
X033396Y012480D01*
X033384Y012465D01*
X033369Y012453D01*
X033351Y012444D01*
X033333Y012438D01*
X033313Y012436D01*
X033293Y012438D01*
X033275Y012444D01*
X033257Y012453D01*
X033242Y012465D01*
X033230Y012480D01*
X033221Y012498D01*
X033215Y012516D01*
X033213Y012536D01*
X033213Y011946D02*
X033215Y011966D01*
X033221Y011984D01*
X033230Y012002D01*
X033242Y012017D01*
X033257Y012029D01*
X033275Y012038D01*
X033293Y012044D01*
X033313Y012046D01*
X033333Y012044D01*
X033351Y012038D01*
X033369Y012029D01*
X033384Y012017D01*
X033396Y012002D01*
X033405Y011984D01*
X033411Y011966D01*
X033413Y011946D01*
X033411Y011926D01*
X033405Y011908D01*
X033396Y011890D01*
X033384Y011875D01*
X033369Y011863D01*
X033351Y011854D01*
X033333Y011848D01*
X033313Y011846D01*
X033293Y011848D01*
X033275Y011854D01*
X033257Y011863D01*
X033242Y011875D01*
X033230Y011890D01*
X033221Y011908D01*
X033215Y011926D01*
X033213Y011946D01*
X033213Y011355D02*
X033215Y011375D01*
X033221Y011393D01*
X033230Y011411D01*
X033242Y011426D01*
X033257Y011438D01*
X033275Y011447D01*
X033293Y011453D01*
X033313Y011455D01*
X033333Y011453D01*
X033351Y011447D01*
X033369Y011438D01*
X033384Y011426D01*
X033396Y011411D01*
X033405Y011393D01*
X033411Y011375D01*
X033413Y011355D01*
X033411Y011335D01*
X033405Y011317D01*
X033396Y011299D01*
X033384Y011284D01*
X033369Y011272D01*
X033351Y011263D01*
X033333Y011257D01*
X033313Y011255D01*
X033293Y011257D01*
X033275Y011263D01*
X033257Y011272D01*
X033242Y011284D01*
X033230Y011299D01*
X033221Y011317D01*
X033215Y011335D01*
X033213Y011355D01*
X033213Y010686D02*
X033215Y010706D01*
X033221Y010724D01*
X033230Y010742D01*
X033242Y010757D01*
X033257Y010769D01*
X033275Y010778D01*
X033293Y010784D01*
X033313Y010786D01*
X033333Y010784D01*
X033351Y010778D01*
X033369Y010769D01*
X033384Y010757D01*
X033396Y010742D01*
X033405Y010724D01*
X033411Y010706D01*
X033413Y010686D01*
X033411Y010666D01*
X033405Y010648D01*
X033396Y010630D01*
X033384Y010615D01*
X033369Y010603D01*
X033351Y010594D01*
X033333Y010588D01*
X033313Y010586D01*
X033293Y010588D01*
X033275Y010594D01*
X033257Y010603D01*
X033242Y010615D01*
X033230Y010630D01*
X033221Y010648D01*
X033215Y010666D01*
X033213Y010686D01*
X033213Y010292D02*
X033215Y010312D01*
X033221Y010330D01*
X033230Y010348D01*
X033242Y010363D01*
X033257Y010375D01*
X033275Y010384D01*
X033293Y010390D01*
X033313Y010392D01*
X033333Y010390D01*
X033351Y010384D01*
X033369Y010375D01*
X033384Y010363D01*
X033396Y010348D01*
X033405Y010330D01*
X033411Y010312D01*
X033413Y010292D01*
X033411Y010272D01*
X033405Y010254D01*
X033396Y010236D01*
X033384Y010221D01*
X033369Y010209D01*
X033351Y010200D01*
X033333Y010194D01*
X033313Y010192D01*
X033293Y010194D01*
X033275Y010200D01*
X033257Y010209D01*
X033242Y010221D01*
X033230Y010236D01*
X033221Y010254D01*
X033215Y010272D01*
X033213Y010292D01*
X033213Y009899D02*
X033215Y009919D01*
X033221Y009937D01*
X033230Y009955D01*
X033242Y009970D01*
X033257Y009982D01*
X033275Y009991D01*
X033293Y009997D01*
X033313Y009999D01*
X033333Y009997D01*
X033351Y009991D01*
X033369Y009982D01*
X033384Y009970D01*
X033396Y009955D01*
X033405Y009937D01*
X033411Y009919D01*
X033413Y009899D01*
X033411Y009879D01*
X033405Y009861D01*
X033396Y009843D01*
X033384Y009828D01*
X033369Y009816D01*
X033351Y009807D01*
X033333Y009801D01*
X033313Y009799D01*
X033293Y009801D01*
X033275Y009807D01*
X033257Y009816D01*
X033242Y009828D01*
X033230Y009843D01*
X033221Y009861D01*
X033215Y009879D01*
X033213Y009899D01*
X033213Y009505D02*
X033215Y009525D01*
X033221Y009543D01*
X033230Y009561D01*
X033242Y009576D01*
X033257Y009588D01*
X033275Y009597D01*
X033293Y009603D01*
X033313Y009605D01*
X033333Y009603D01*
X033351Y009597D01*
X033369Y009588D01*
X033384Y009576D01*
X033396Y009561D01*
X033405Y009543D01*
X033411Y009525D01*
X033413Y009505D01*
X033411Y009485D01*
X033405Y009467D01*
X033396Y009449D01*
X033384Y009434D01*
X033369Y009422D01*
X033351Y009413D01*
X033333Y009407D01*
X033313Y009405D01*
X033293Y009407D01*
X033275Y009413D01*
X033257Y009422D01*
X033242Y009434D01*
X033230Y009449D01*
X033221Y009467D01*
X033215Y009485D01*
X033213Y009505D01*
X040300Y009505D02*
X040302Y009525D01*
X040308Y009543D01*
X040317Y009561D01*
X040329Y009576D01*
X040344Y009588D01*
X040362Y009597D01*
X040380Y009603D01*
X040400Y009605D01*
X040420Y009603D01*
X040438Y009597D01*
X040456Y009588D01*
X040471Y009576D01*
X040483Y009561D01*
X040492Y009543D01*
X040498Y009525D01*
X040500Y009505D01*
X040498Y009485D01*
X040492Y009467D01*
X040483Y009449D01*
X040471Y009434D01*
X040456Y009422D01*
X040438Y009413D01*
X040420Y009407D01*
X040400Y009405D01*
X040380Y009407D01*
X040362Y009413D01*
X040344Y009422D01*
X040329Y009434D01*
X040317Y009449D01*
X040308Y009467D01*
X040302Y009485D01*
X040300Y009505D01*
X040300Y009899D02*
X040302Y009919D01*
X040308Y009937D01*
X040317Y009955D01*
X040329Y009970D01*
X040344Y009982D01*
X040362Y009991D01*
X040380Y009997D01*
X040400Y009999D01*
X040420Y009997D01*
X040438Y009991D01*
X040456Y009982D01*
X040471Y009970D01*
X040483Y009955D01*
X040492Y009937D01*
X040498Y009919D01*
X040500Y009899D01*
X040498Y009879D01*
X040492Y009861D01*
X040483Y009843D01*
X040471Y009828D01*
X040456Y009816D01*
X040438Y009807D01*
X040420Y009801D01*
X040400Y009799D01*
X040380Y009801D01*
X040362Y009807D01*
X040344Y009816D01*
X040329Y009828D01*
X040317Y009843D01*
X040308Y009861D01*
X040302Y009879D01*
X040300Y009899D01*
X040300Y010292D02*
X040302Y010312D01*
X040308Y010330D01*
X040317Y010348D01*
X040329Y010363D01*
X040344Y010375D01*
X040362Y010384D01*
X040380Y010390D01*
X040400Y010392D01*
X040420Y010390D01*
X040438Y010384D01*
X040456Y010375D01*
X040471Y010363D01*
X040483Y010348D01*
X040492Y010330D01*
X040498Y010312D01*
X040500Y010292D01*
X040498Y010272D01*
X040492Y010254D01*
X040483Y010236D01*
X040471Y010221D01*
X040456Y010209D01*
X040438Y010200D01*
X040420Y010194D01*
X040400Y010192D01*
X040380Y010194D01*
X040362Y010200D01*
X040344Y010209D01*
X040329Y010221D01*
X040317Y010236D01*
X040308Y010254D01*
X040302Y010272D01*
X040300Y010292D01*
X040300Y010686D02*
X040302Y010706D01*
X040308Y010724D01*
X040317Y010742D01*
X040329Y010757D01*
X040344Y010769D01*
X040362Y010778D01*
X040380Y010784D01*
X040400Y010786D01*
X040420Y010784D01*
X040438Y010778D01*
X040456Y010769D01*
X040471Y010757D01*
X040483Y010742D01*
X040492Y010724D01*
X040498Y010706D01*
X040500Y010686D01*
X040498Y010666D01*
X040492Y010648D01*
X040483Y010630D01*
X040471Y010615D01*
X040456Y010603D01*
X040438Y010594D01*
X040420Y010588D01*
X040400Y010586D01*
X040380Y010588D01*
X040362Y010594D01*
X040344Y010603D01*
X040329Y010615D01*
X040317Y010630D01*
X040308Y010648D01*
X040302Y010666D01*
X040300Y010686D01*
X040300Y011355D02*
X040302Y011375D01*
X040308Y011393D01*
X040317Y011411D01*
X040329Y011426D01*
X040344Y011438D01*
X040362Y011447D01*
X040380Y011453D01*
X040400Y011455D01*
X040420Y011453D01*
X040438Y011447D01*
X040456Y011438D01*
X040471Y011426D01*
X040483Y011411D01*
X040492Y011393D01*
X040498Y011375D01*
X040500Y011355D01*
X040498Y011335D01*
X040492Y011317D01*
X040483Y011299D01*
X040471Y011284D01*
X040456Y011272D01*
X040438Y011263D01*
X040420Y011257D01*
X040400Y011255D01*
X040380Y011257D01*
X040362Y011263D01*
X040344Y011272D01*
X040329Y011284D01*
X040317Y011299D01*
X040308Y011317D01*
X040302Y011335D01*
X040300Y011355D01*
X040300Y011946D02*
X040302Y011966D01*
X040308Y011984D01*
X040317Y012002D01*
X040329Y012017D01*
X040344Y012029D01*
X040362Y012038D01*
X040380Y012044D01*
X040400Y012046D01*
X040420Y012044D01*
X040438Y012038D01*
X040456Y012029D01*
X040471Y012017D01*
X040483Y012002D01*
X040492Y011984D01*
X040498Y011966D01*
X040500Y011946D01*
X040498Y011926D01*
X040492Y011908D01*
X040483Y011890D01*
X040471Y011875D01*
X040456Y011863D01*
X040438Y011854D01*
X040420Y011848D01*
X040400Y011846D01*
X040380Y011848D01*
X040362Y011854D01*
X040344Y011863D01*
X040329Y011875D01*
X040317Y011890D01*
X040308Y011908D01*
X040302Y011926D01*
X040300Y011946D01*
X040300Y012536D02*
X040302Y012556D01*
X040308Y012574D01*
X040317Y012592D01*
X040329Y012607D01*
X040344Y012619D01*
X040362Y012628D01*
X040380Y012634D01*
X040400Y012636D01*
X040420Y012634D01*
X040438Y012628D01*
X040456Y012619D01*
X040471Y012607D01*
X040483Y012592D01*
X040492Y012574D01*
X040498Y012556D01*
X040500Y012536D01*
X040498Y012516D01*
X040492Y012498D01*
X040483Y012480D01*
X040471Y012465D01*
X040456Y012453D01*
X040438Y012444D01*
X040420Y012438D01*
X040400Y012436D01*
X040380Y012438D01*
X040362Y012444D01*
X040344Y012453D01*
X040329Y012465D01*
X040317Y012480D01*
X040308Y012498D01*
X040302Y012516D01*
X040300Y012536D01*
X040300Y013127D02*
X040302Y013147D01*
X040308Y013165D01*
X040317Y013183D01*
X040329Y013198D01*
X040344Y013210D01*
X040362Y013219D01*
X040380Y013225D01*
X040400Y013227D01*
X040420Y013225D01*
X040438Y013219D01*
X040456Y013210D01*
X040471Y013198D01*
X040483Y013183D01*
X040492Y013165D01*
X040498Y013147D01*
X040500Y013127D01*
X040498Y013107D01*
X040492Y013089D01*
X040483Y013071D01*
X040471Y013056D01*
X040456Y013044D01*
X040438Y013035D01*
X040420Y013029D01*
X040400Y013027D01*
X040380Y013029D01*
X040362Y013035D01*
X040344Y013044D01*
X040329Y013056D01*
X040317Y013071D01*
X040308Y013089D01*
X040302Y013107D01*
X040300Y013127D01*
X040300Y013434D02*
X040302Y013454D01*
X040308Y013472D01*
X040317Y013490D01*
X040329Y013505D01*
X040344Y013517D01*
X040362Y013526D01*
X040380Y013532D01*
X040400Y013534D01*
X040420Y013532D01*
X040438Y013526D01*
X040456Y013517D01*
X040471Y013505D01*
X040483Y013490D01*
X040492Y013472D01*
X040498Y013454D01*
X040500Y013434D01*
X040498Y013414D01*
X040492Y013396D01*
X040483Y013378D01*
X040471Y013363D01*
X040456Y013351D01*
X040438Y013342D01*
X040420Y013336D01*
X040400Y013334D01*
X040380Y013336D01*
X040362Y013342D01*
X040344Y013351D01*
X040329Y013363D01*
X040317Y013378D01*
X040308Y013396D01*
X040302Y013414D01*
X040300Y013434D01*
X040300Y013741D02*
X040302Y013761D01*
X040308Y013779D01*
X040317Y013797D01*
X040329Y013812D01*
X040344Y013824D01*
X040362Y013833D01*
X040380Y013839D01*
X040400Y013841D01*
X040420Y013839D01*
X040438Y013833D01*
X040456Y013824D01*
X040471Y013812D01*
X040483Y013797D01*
X040492Y013779D01*
X040498Y013761D01*
X040500Y013741D01*
X040498Y013721D01*
X040492Y013703D01*
X040483Y013685D01*
X040471Y013670D01*
X040456Y013658D01*
X040438Y013649D01*
X040420Y013643D01*
X040400Y013641D01*
X040380Y013643D01*
X040362Y013649D01*
X040344Y013658D01*
X040329Y013670D01*
X040317Y013685D01*
X040308Y013703D01*
X040302Y013721D01*
X040300Y013741D01*
X040300Y014048D02*
X040302Y014068D01*
X040308Y014086D01*
X040317Y014104D01*
X040329Y014119D01*
X040344Y014131D01*
X040362Y014140D01*
X040380Y014146D01*
X040400Y014148D01*
X040420Y014146D01*
X040438Y014140D01*
X040456Y014131D01*
X040471Y014119D01*
X040483Y014104D01*
X040492Y014086D01*
X040498Y014068D01*
X040500Y014048D01*
X040498Y014028D01*
X040492Y014010D01*
X040483Y013992D01*
X040471Y013977D01*
X040456Y013965D01*
X040438Y013956D01*
X040420Y013950D01*
X040400Y013948D01*
X040380Y013950D01*
X040362Y013956D01*
X040344Y013965D01*
X040329Y013977D01*
X040317Y013992D01*
X040308Y014010D01*
X040302Y014028D01*
X040300Y014048D01*
X040300Y014355D02*
X040302Y014375D01*
X040308Y014393D01*
X040317Y014411D01*
X040329Y014426D01*
X040344Y014438D01*
X040362Y014447D01*
X040380Y014453D01*
X040400Y014455D01*
X040420Y014453D01*
X040438Y014447D01*
X040456Y014438D01*
X040471Y014426D01*
X040483Y014411D01*
X040492Y014393D01*
X040498Y014375D01*
X040500Y014355D01*
X040498Y014335D01*
X040492Y014317D01*
X040483Y014299D01*
X040471Y014284D01*
X040456Y014272D01*
X040438Y014263D01*
X040420Y014257D01*
X040400Y014255D01*
X040380Y014257D01*
X040362Y014263D01*
X040344Y014272D01*
X040329Y014284D01*
X040317Y014299D01*
X040308Y014317D01*
X040302Y014335D01*
X040300Y014355D01*
X040300Y014662D02*
X040302Y014682D01*
X040308Y014700D01*
X040317Y014718D01*
X040329Y014733D01*
X040344Y014745D01*
X040362Y014754D01*
X040380Y014760D01*
X040400Y014762D01*
X040420Y014760D01*
X040438Y014754D01*
X040456Y014745D01*
X040471Y014733D01*
X040483Y014718D01*
X040492Y014700D01*
X040498Y014682D01*
X040500Y014662D01*
X040498Y014642D01*
X040492Y014624D01*
X040483Y014606D01*
X040471Y014591D01*
X040456Y014579D01*
X040438Y014570D01*
X040420Y014564D01*
X040400Y014562D01*
X040380Y014564D01*
X040362Y014570D01*
X040344Y014579D01*
X040329Y014591D01*
X040317Y014606D01*
X040308Y014624D01*
X040302Y014642D01*
X040300Y014662D01*
X040300Y014969D02*
X040302Y014989D01*
X040308Y015007D01*
X040317Y015025D01*
X040329Y015040D01*
X040344Y015052D01*
X040362Y015061D01*
X040380Y015067D01*
X040400Y015069D01*
X040420Y015067D01*
X040438Y015061D01*
X040456Y015052D01*
X040471Y015040D01*
X040483Y015025D01*
X040492Y015007D01*
X040498Y014989D01*
X040500Y014969D01*
X040498Y014949D01*
X040492Y014931D01*
X040483Y014913D01*
X040471Y014898D01*
X040456Y014886D01*
X040438Y014877D01*
X040420Y014871D01*
X040400Y014869D01*
X040380Y014871D01*
X040362Y014877D01*
X040344Y014886D01*
X040329Y014898D01*
X040317Y014913D01*
X040308Y014931D01*
X040302Y014949D01*
X040300Y014969D01*
X040300Y015277D02*
X040302Y015297D01*
X040308Y015315D01*
X040317Y015333D01*
X040329Y015348D01*
X040344Y015360D01*
X040362Y015369D01*
X040380Y015375D01*
X040400Y015377D01*
X040420Y015375D01*
X040438Y015369D01*
X040456Y015360D01*
X040471Y015348D01*
X040483Y015333D01*
X040492Y015315D01*
X040498Y015297D01*
X040500Y015277D01*
X040498Y015257D01*
X040492Y015239D01*
X040483Y015221D01*
X040471Y015206D01*
X040456Y015194D01*
X040438Y015185D01*
X040420Y015179D01*
X040400Y015177D01*
X040380Y015179D01*
X040362Y015185D01*
X040344Y015194D01*
X040329Y015206D01*
X040317Y015221D01*
X040308Y015239D01*
X040302Y015257D01*
X040300Y015277D01*
X040300Y015584D02*
X040302Y015604D01*
X040308Y015622D01*
X040317Y015640D01*
X040329Y015655D01*
X040344Y015667D01*
X040362Y015676D01*
X040380Y015682D01*
X040400Y015684D01*
X040420Y015682D01*
X040438Y015676D01*
X040456Y015667D01*
X040471Y015655D01*
X040483Y015640D01*
X040492Y015622D01*
X040498Y015604D01*
X040500Y015584D01*
X040498Y015564D01*
X040492Y015546D01*
X040483Y015528D01*
X040471Y015513D01*
X040456Y015501D01*
X040438Y015492D01*
X040420Y015486D01*
X040400Y015484D01*
X040380Y015486D01*
X040362Y015492D01*
X040344Y015501D01*
X040329Y015513D01*
X040317Y015528D01*
X040308Y015546D01*
X040302Y015564D01*
X040300Y015584D01*
X040300Y015891D02*
X040302Y015911D01*
X040308Y015929D01*
X040317Y015947D01*
X040329Y015962D01*
X040344Y015974D01*
X040362Y015983D01*
X040380Y015989D01*
X040400Y015991D01*
X040420Y015989D01*
X040438Y015983D01*
X040456Y015974D01*
X040471Y015962D01*
X040483Y015947D01*
X040492Y015929D01*
X040498Y015911D01*
X040500Y015891D01*
X040498Y015871D01*
X040492Y015853D01*
X040483Y015835D01*
X040471Y015820D01*
X040456Y015808D01*
X040438Y015799D01*
X040420Y015793D01*
X040400Y015791D01*
X040380Y015793D01*
X040362Y015799D01*
X040344Y015808D01*
X040329Y015820D01*
X040317Y015835D01*
X040308Y015853D01*
X040302Y015871D01*
X040300Y015891D01*
X047387Y015891D02*
X047389Y015911D01*
X047395Y015929D01*
X047404Y015947D01*
X047416Y015962D01*
X047431Y015974D01*
X047449Y015983D01*
X047467Y015989D01*
X047487Y015991D01*
X047507Y015989D01*
X047525Y015983D01*
X047543Y015974D01*
X047558Y015962D01*
X047570Y015947D01*
X047579Y015929D01*
X047585Y015911D01*
X047587Y015891D01*
X047585Y015871D01*
X047579Y015853D01*
X047570Y015835D01*
X047558Y015820D01*
X047543Y015808D01*
X047525Y015799D01*
X047507Y015793D01*
X047487Y015791D01*
X047467Y015793D01*
X047449Y015799D01*
X047431Y015808D01*
X047416Y015820D01*
X047404Y015835D01*
X047395Y015853D01*
X047389Y015871D01*
X047387Y015891D01*
X047387Y015584D02*
X047389Y015604D01*
X047395Y015622D01*
X047404Y015640D01*
X047416Y015655D01*
X047431Y015667D01*
X047449Y015676D01*
X047467Y015682D01*
X047487Y015684D01*
X047507Y015682D01*
X047525Y015676D01*
X047543Y015667D01*
X047558Y015655D01*
X047570Y015640D01*
X047579Y015622D01*
X047585Y015604D01*
X047587Y015584D01*
X047585Y015564D01*
X047579Y015546D01*
X047570Y015528D01*
X047558Y015513D01*
X047543Y015501D01*
X047525Y015492D01*
X047507Y015486D01*
X047487Y015484D01*
X047467Y015486D01*
X047449Y015492D01*
X047431Y015501D01*
X047416Y015513D01*
X047404Y015528D01*
X047395Y015546D01*
X047389Y015564D01*
X047387Y015584D01*
X047387Y015277D02*
X047389Y015297D01*
X047395Y015315D01*
X047404Y015333D01*
X047416Y015348D01*
X047431Y015360D01*
X047449Y015369D01*
X047467Y015375D01*
X047487Y015377D01*
X047507Y015375D01*
X047525Y015369D01*
X047543Y015360D01*
X047558Y015348D01*
X047570Y015333D01*
X047579Y015315D01*
X047585Y015297D01*
X047587Y015277D01*
X047585Y015257D01*
X047579Y015239D01*
X047570Y015221D01*
X047558Y015206D01*
X047543Y015194D01*
X047525Y015185D01*
X047507Y015179D01*
X047487Y015177D01*
X047467Y015179D01*
X047449Y015185D01*
X047431Y015194D01*
X047416Y015206D01*
X047404Y015221D01*
X047395Y015239D01*
X047389Y015257D01*
X047387Y015277D01*
X047387Y014969D02*
X047389Y014989D01*
X047395Y015007D01*
X047404Y015025D01*
X047416Y015040D01*
X047431Y015052D01*
X047449Y015061D01*
X047467Y015067D01*
X047487Y015069D01*
X047507Y015067D01*
X047525Y015061D01*
X047543Y015052D01*
X047558Y015040D01*
X047570Y015025D01*
X047579Y015007D01*
X047585Y014989D01*
X047587Y014969D01*
X047585Y014949D01*
X047579Y014931D01*
X047570Y014913D01*
X047558Y014898D01*
X047543Y014886D01*
X047525Y014877D01*
X047507Y014871D01*
X047487Y014869D01*
X047467Y014871D01*
X047449Y014877D01*
X047431Y014886D01*
X047416Y014898D01*
X047404Y014913D01*
X047395Y014931D01*
X047389Y014949D01*
X047387Y014969D01*
X047387Y014662D02*
X047389Y014682D01*
X047395Y014700D01*
X047404Y014718D01*
X047416Y014733D01*
X047431Y014745D01*
X047449Y014754D01*
X047467Y014760D01*
X047487Y014762D01*
X047507Y014760D01*
X047525Y014754D01*
X047543Y014745D01*
X047558Y014733D01*
X047570Y014718D01*
X047579Y014700D01*
X047585Y014682D01*
X047587Y014662D01*
X047585Y014642D01*
X047579Y014624D01*
X047570Y014606D01*
X047558Y014591D01*
X047543Y014579D01*
X047525Y014570D01*
X047507Y014564D01*
X047487Y014562D01*
X047467Y014564D01*
X047449Y014570D01*
X047431Y014579D01*
X047416Y014591D01*
X047404Y014606D01*
X047395Y014624D01*
X047389Y014642D01*
X047387Y014662D01*
X047387Y014355D02*
X047389Y014375D01*
X047395Y014393D01*
X047404Y014411D01*
X047416Y014426D01*
X047431Y014438D01*
X047449Y014447D01*
X047467Y014453D01*
X047487Y014455D01*
X047507Y014453D01*
X047525Y014447D01*
X047543Y014438D01*
X047558Y014426D01*
X047570Y014411D01*
X047579Y014393D01*
X047585Y014375D01*
X047587Y014355D01*
X047585Y014335D01*
X047579Y014317D01*
X047570Y014299D01*
X047558Y014284D01*
X047543Y014272D01*
X047525Y014263D01*
X047507Y014257D01*
X047487Y014255D01*
X047467Y014257D01*
X047449Y014263D01*
X047431Y014272D01*
X047416Y014284D01*
X047404Y014299D01*
X047395Y014317D01*
X047389Y014335D01*
X047387Y014355D01*
X047387Y014048D02*
X047389Y014068D01*
X047395Y014086D01*
X047404Y014104D01*
X047416Y014119D01*
X047431Y014131D01*
X047449Y014140D01*
X047467Y014146D01*
X047487Y014148D01*
X047507Y014146D01*
X047525Y014140D01*
X047543Y014131D01*
X047558Y014119D01*
X047570Y014104D01*
X047579Y014086D01*
X047585Y014068D01*
X047587Y014048D01*
X047585Y014028D01*
X047579Y014010D01*
X047570Y013992D01*
X047558Y013977D01*
X047543Y013965D01*
X047525Y013956D01*
X047507Y013950D01*
X047487Y013948D01*
X047467Y013950D01*
X047449Y013956D01*
X047431Y013965D01*
X047416Y013977D01*
X047404Y013992D01*
X047395Y014010D01*
X047389Y014028D01*
X047387Y014048D01*
X047387Y013741D02*
X047389Y013761D01*
X047395Y013779D01*
X047404Y013797D01*
X047416Y013812D01*
X047431Y013824D01*
X047449Y013833D01*
X047467Y013839D01*
X047487Y013841D01*
X047507Y013839D01*
X047525Y013833D01*
X047543Y013824D01*
X047558Y013812D01*
X047570Y013797D01*
X047579Y013779D01*
X047585Y013761D01*
X047587Y013741D01*
X047585Y013721D01*
X047579Y013703D01*
X047570Y013685D01*
X047558Y013670D01*
X047543Y013658D01*
X047525Y013649D01*
X047507Y013643D01*
X047487Y013641D01*
X047467Y013643D01*
X047449Y013649D01*
X047431Y013658D01*
X047416Y013670D01*
X047404Y013685D01*
X047395Y013703D01*
X047389Y013721D01*
X047387Y013741D01*
X047387Y013434D02*
X047389Y013454D01*
X047395Y013472D01*
X047404Y013490D01*
X047416Y013505D01*
X047431Y013517D01*
X047449Y013526D01*
X047467Y013532D01*
X047487Y013534D01*
X047507Y013532D01*
X047525Y013526D01*
X047543Y013517D01*
X047558Y013505D01*
X047570Y013490D01*
X047579Y013472D01*
X047585Y013454D01*
X047587Y013434D01*
X047585Y013414D01*
X047579Y013396D01*
X047570Y013378D01*
X047558Y013363D01*
X047543Y013351D01*
X047525Y013342D01*
X047507Y013336D01*
X047487Y013334D01*
X047467Y013336D01*
X047449Y013342D01*
X047431Y013351D01*
X047416Y013363D01*
X047404Y013378D01*
X047395Y013396D01*
X047389Y013414D01*
X047387Y013434D01*
X047387Y013127D02*
X047389Y013147D01*
X047395Y013165D01*
X047404Y013183D01*
X047416Y013198D01*
X047431Y013210D01*
X047449Y013219D01*
X047467Y013225D01*
X047487Y013227D01*
X047507Y013225D01*
X047525Y013219D01*
X047543Y013210D01*
X047558Y013198D01*
X047570Y013183D01*
X047579Y013165D01*
X047585Y013147D01*
X047587Y013127D01*
X047585Y013107D01*
X047579Y013089D01*
X047570Y013071D01*
X047558Y013056D01*
X047543Y013044D01*
X047525Y013035D01*
X047507Y013029D01*
X047487Y013027D01*
X047467Y013029D01*
X047449Y013035D01*
X047431Y013044D01*
X047416Y013056D01*
X047404Y013071D01*
X047395Y013089D01*
X047389Y013107D01*
X047387Y013127D01*
X047387Y012536D02*
X047389Y012556D01*
X047395Y012574D01*
X047404Y012592D01*
X047416Y012607D01*
X047431Y012619D01*
X047449Y012628D01*
X047467Y012634D01*
X047487Y012636D01*
X047507Y012634D01*
X047525Y012628D01*
X047543Y012619D01*
X047558Y012607D01*
X047570Y012592D01*
X047579Y012574D01*
X047585Y012556D01*
X047587Y012536D01*
X047585Y012516D01*
X047579Y012498D01*
X047570Y012480D01*
X047558Y012465D01*
X047543Y012453D01*
X047525Y012444D01*
X047507Y012438D01*
X047487Y012436D01*
X047467Y012438D01*
X047449Y012444D01*
X047431Y012453D01*
X047416Y012465D01*
X047404Y012480D01*
X047395Y012498D01*
X047389Y012516D01*
X047387Y012536D01*
X047387Y011946D02*
X047389Y011966D01*
X047395Y011984D01*
X047404Y012002D01*
X047416Y012017D01*
X047431Y012029D01*
X047449Y012038D01*
X047467Y012044D01*
X047487Y012046D01*
X047507Y012044D01*
X047525Y012038D01*
X047543Y012029D01*
X047558Y012017D01*
X047570Y012002D01*
X047579Y011984D01*
X047585Y011966D01*
X047587Y011946D01*
X047585Y011926D01*
X047579Y011908D01*
X047570Y011890D01*
X047558Y011875D01*
X047543Y011863D01*
X047525Y011854D01*
X047507Y011848D01*
X047487Y011846D01*
X047467Y011848D01*
X047449Y011854D01*
X047431Y011863D01*
X047416Y011875D01*
X047404Y011890D01*
X047395Y011908D01*
X047389Y011926D01*
X047387Y011946D01*
X047387Y011355D02*
X047389Y011375D01*
X047395Y011393D01*
X047404Y011411D01*
X047416Y011426D01*
X047431Y011438D01*
X047449Y011447D01*
X047467Y011453D01*
X047487Y011455D01*
X047507Y011453D01*
X047525Y011447D01*
X047543Y011438D01*
X047558Y011426D01*
X047570Y011411D01*
X047579Y011393D01*
X047585Y011375D01*
X047587Y011355D01*
X047585Y011335D01*
X047579Y011317D01*
X047570Y011299D01*
X047558Y011284D01*
X047543Y011272D01*
X047525Y011263D01*
X047507Y011257D01*
X047487Y011255D01*
X047467Y011257D01*
X047449Y011263D01*
X047431Y011272D01*
X047416Y011284D01*
X047404Y011299D01*
X047395Y011317D01*
X047389Y011335D01*
X047387Y011355D01*
X047387Y010686D02*
X047389Y010706D01*
X047395Y010724D01*
X047404Y010742D01*
X047416Y010757D01*
X047431Y010769D01*
X047449Y010778D01*
X047467Y010784D01*
X047487Y010786D01*
X047507Y010784D01*
X047525Y010778D01*
X047543Y010769D01*
X047558Y010757D01*
X047570Y010742D01*
X047579Y010724D01*
X047585Y010706D01*
X047587Y010686D01*
X047585Y010666D01*
X047579Y010648D01*
X047570Y010630D01*
X047558Y010615D01*
X047543Y010603D01*
X047525Y010594D01*
X047507Y010588D01*
X047487Y010586D01*
X047467Y010588D01*
X047449Y010594D01*
X047431Y010603D01*
X047416Y010615D01*
X047404Y010630D01*
X047395Y010648D01*
X047389Y010666D01*
X047387Y010686D01*
X047387Y010292D02*
X047389Y010312D01*
X047395Y010330D01*
X047404Y010348D01*
X047416Y010363D01*
X047431Y010375D01*
X047449Y010384D01*
X047467Y010390D01*
X047487Y010392D01*
X047507Y010390D01*
X047525Y010384D01*
X047543Y010375D01*
X047558Y010363D01*
X047570Y010348D01*
X047579Y010330D01*
X047585Y010312D01*
X047587Y010292D01*
X047585Y010272D01*
X047579Y010254D01*
X047570Y010236D01*
X047558Y010221D01*
X047543Y010209D01*
X047525Y010200D01*
X047507Y010194D01*
X047487Y010192D01*
X047467Y010194D01*
X047449Y010200D01*
X047431Y010209D01*
X047416Y010221D01*
X047404Y010236D01*
X047395Y010254D01*
X047389Y010272D01*
X047387Y010292D01*
X047387Y009899D02*
X047389Y009919D01*
X047395Y009937D01*
X047404Y009955D01*
X047416Y009970D01*
X047431Y009982D01*
X047449Y009991D01*
X047467Y009997D01*
X047487Y009999D01*
X047507Y009997D01*
X047525Y009991D01*
X047543Y009982D01*
X047558Y009970D01*
X047570Y009955D01*
X047579Y009937D01*
X047585Y009919D01*
X047587Y009899D01*
X047585Y009879D01*
X047579Y009861D01*
X047570Y009843D01*
X047558Y009828D01*
X047543Y009816D01*
X047525Y009807D01*
X047507Y009801D01*
X047487Y009799D01*
X047467Y009801D01*
X047449Y009807D01*
X047431Y009816D01*
X047416Y009828D01*
X047404Y009843D01*
X047395Y009861D01*
X047389Y009879D01*
X047387Y009899D01*
X047387Y009505D02*
X047389Y009525D01*
X047395Y009543D01*
X047404Y009561D01*
X047416Y009576D01*
X047431Y009588D01*
X047449Y009597D01*
X047467Y009603D01*
X047487Y009605D01*
X047507Y009603D01*
X047525Y009597D01*
X047543Y009588D01*
X047558Y009576D01*
X047570Y009561D01*
X047579Y009543D01*
X047585Y009525D01*
X047587Y009505D01*
X047585Y009485D01*
X047579Y009467D01*
X047570Y009449D01*
X047558Y009434D01*
X047543Y009422D01*
X047525Y009413D01*
X047507Y009407D01*
X047487Y009405D01*
X047467Y009407D01*
X047449Y009413D01*
X047431Y009422D01*
X047416Y009434D01*
X047404Y009449D01*
X047395Y009467D01*
X047389Y009485D01*
X047387Y009505D01*
X054473Y009505D02*
X054475Y009525D01*
X054481Y009543D01*
X054490Y009561D01*
X054502Y009576D01*
X054517Y009588D01*
X054535Y009597D01*
X054553Y009603D01*
X054573Y009605D01*
X054593Y009603D01*
X054611Y009597D01*
X054629Y009588D01*
X054644Y009576D01*
X054656Y009561D01*
X054665Y009543D01*
X054671Y009525D01*
X054673Y009505D01*
X054671Y009485D01*
X054665Y009467D01*
X054656Y009449D01*
X054644Y009434D01*
X054629Y009422D01*
X054611Y009413D01*
X054593Y009407D01*
X054573Y009405D01*
X054553Y009407D01*
X054535Y009413D01*
X054517Y009422D01*
X054502Y009434D01*
X054490Y009449D01*
X054481Y009467D01*
X054475Y009485D01*
X054473Y009505D01*
X054473Y009899D02*
X054475Y009919D01*
X054481Y009937D01*
X054490Y009955D01*
X054502Y009970D01*
X054517Y009982D01*
X054535Y009991D01*
X054553Y009997D01*
X054573Y009999D01*
X054593Y009997D01*
X054611Y009991D01*
X054629Y009982D01*
X054644Y009970D01*
X054656Y009955D01*
X054665Y009937D01*
X054671Y009919D01*
X054673Y009899D01*
X054671Y009879D01*
X054665Y009861D01*
X054656Y009843D01*
X054644Y009828D01*
X054629Y009816D01*
X054611Y009807D01*
X054593Y009801D01*
X054573Y009799D01*
X054553Y009801D01*
X054535Y009807D01*
X054517Y009816D01*
X054502Y009828D01*
X054490Y009843D01*
X054481Y009861D01*
X054475Y009879D01*
X054473Y009899D01*
X054473Y010292D02*
X054475Y010312D01*
X054481Y010330D01*
X054490Y010348D01*
X054502Y010363D01*
X054517Y010375D01*
X054535Y010384D01*
X054553Y010390D01*
X054573Y010392D01*
X054593Y010390D01*
X054611Y010384D01*
X054629Y010375D01*
X054644Y010363D01*
X054656Y010348D01*
X054665Y010330D01*
X054671Y010312D01*
X054673Y010292D01*
X054671Y010272D01*
X054665Y010254D01*
X054656Y010236D01*
X054644Y010221D01*
X054629Y010209D01*
X054611Y010200D01*
X054593Y010194D01*
X054573Y010192D01*
X054553Y010194D01*
X054535Y010200D01*
X054517Y010209D01*
X054502Y010221D01*
X054490Y010236D01*
X054481Y010254D01*
X054475Y010272D01*
X054473Y010292D01*
X054473Y010686D02*
X054475Y010706D01*
X054481Y010724D01*
X054490Y010742D01*
X054502Y010757D01*
X054517Y010769D01*
X054535Y010778D01*
X054553Y010784D01*
X054573Y010786D01*
X054593Y010784D01*
X054611Y010778D01*
X054629Y010769D01*
X054644Y010757D01*
X054656Y010742D01*
X054665Y010724D01*
X054671Y010706D01*
X054673Y010686D01*
X054671Y010666D01*
X054665Y010648D01*
X054656Y010630D01*
X054644Y010615D01*
X054629Y010603D01*
X054611Y010594D01*
X054593Y010588D01*
X054573Y010586D01*
X054553Y010588D01*
X054535Y010594D01*
X054517Y010603D01*
X054502Y010615D01*
X054490Y010630D01*
X054481Y010648D01*
X054475Y010666D01*
X054473Y010686D01*
X054473Y011355D02*
X054475Y011375D01*
X054481Y011393D01*
X054490Y011411D01*
X054502Y011426D01*
X054517Y011438D01*
X054535Y011447D01*
X054553Y011453D01*
X054573Y011455D01*
X054593Y011453D01*
X054611Y011447D01*
X054629Y011438D01*
X054644Y011426D01*
X054656Y011411D01*
X054665Y011393D01*
X054671Y011375D01*
X054673Y011355D01*
X054671Y011335D01*
X054665Y011317D01*
X054656Y011299D01*
X054644Y011284D01*
X054629Y011272D01*
X054611Y011263D01*
X054593Y011257D01*
X054573Y011255D01*
X054553Y011257D01*
X054535Y011263D01*
X054517Y011272D01*
X054502Y011284D01*
X054490Y011299D01*
X054481Y011317D01*
X054475Y011335D01*
X054473Y011355D01*
X054473Y011946D02*
X054475Y011966D01*
X054481Y011984D01*
X054490Y012002D01*
X054502Y012017D01*
X054517Y012029D01*
X054535Y012038D01*
X054553Y012044D01*
X054573Y012046D01*
X054593Y012044D01*
X054611Y012038D01*
X054629Y012029D01*
X054644Y012017D01*
X054656Y012002D01*
X054665Y011984D01*
X054671Y011966D01*
X054673Y011946D01*
X054671Y011926D01*
X054665Y011908D01*
X054656Y011890D01*
X054644Y011875D01*
X054629Y011863D01*
X054611Y011854D01*
X054593Y011848D01*
X054573Y011846D01*
X054553Y011848D01*
X054535Y011854D01*
X054517Y011863D01*
X054502Y011875D01*
X054490Y011890D01*
X054481Y011908D01*
X054475Y011926D01*
X054473Y011946D01*
X054473Y012536D02*
X054475Y012556D01*
X054481Y012574D01*
X054490Y012592D01*
X054502Y012607D01*
X054517Y012619D01*
X054535Y012628D01*
X054553Y012634D01*
X054573Y012636D01*
X054593Y012634D01*
X054611Y012628D01*
X054629Y012619D01*
X054644Y012607D01*
X054656Y012592D01*
X054665Y012574D01*
X054671Y012556D01*
X054673Y012536D01*
X054671Y012516D01*
X054665Y012498D01*
X054656Y012480D01*
X054644Y012465D01*
X054629Y012453D01*
X054611Y012444D01*
X054593Y012438D01*
X054573Y012436D01*
X054553Y012438D01*
X054535Y012444D01*
X054517Y012453D01*
X054502Y012465D01*
X054490Y012480D01*
X054481Y012498D01*
X054475Y012516D01*
X054473Y012536D01*
X054473Y013127D02*
X054475Y013147D01*
X054481Y013165D01*
X054490Y013183D01*
X054502Y013198D01*
X054517Y013210D01*
X054535Y013219D01*
X054553Y013225D01*
X054573Y013227D01*
X054593Y013225D01*
X054611Y013219D01*
X054629Y013210D01*
X054644Y013198D01*
X054656Y013183D01*
X054665Y013165D01*
X054671Y013147D01*
X054673Y013127D01*
X054671Y013107D01*
X054665Y013089D01*
X054656Y013071D01*
X054644Y013056D01*
X054629Y013044D01*
X054611Y013035D01*
X054593Y013029D01*
X054573Y013027D01*
X054553Y013029D01*
X054535Y013035D01*
X054517Y013044D01*
X054502Y013056D01*
X054490Y013071D01*
X054481Y013089D01*
X054475Y013107D01*
X054473Y013127D01*
X054473Y013434D02*
X054475Y013454D01*
X054481Y013472D01*
X054490Y013490D01*
X054502Y013505D01*
X054517Y013517D01*
X054535Y013526D01*
X054553Y013532D01*
X054573Y013534D01*
X054593Y013532D01*
X054611Y013526D01*
X054629Y013517D01*
X054644Y013505D01*
X054656Y013490D01*
X054665Y013472D01*
X054671Y013454D01*
X054673Y013434D01*
X054671Y013414D01*
X054665Y013396D01*
X054656Y013378D01*
X054644Y013363D01*
X054629Y013351D01*
X054611Y013342D01*
X054593Y013336D01*
X054573Y013334D01*
X054553Y013336D01*
X054535Y013342D01*
X054517Y013351D01*
X054502Y013363D01*
X054490Y013378D01*
X054481Y013396D01*
X054475Y013414D01*
X054473Y013434D01*
X054473Y013741D02*
X054475Y013761D01*
X054481Y013779D01*
X054490Y013797D01*
X054502Y013812D01*
X054517Y013824D01*
X054535Y013833D01*
X054553Y013839D01*
X054573Y013841D01*
X054593Y013839D01*
X054611Y013833D01*
X054629Y013824D01*
X054644Y013812D01*
X054656Y013797D01*
X054665Y013779D01*
X054671Y013761D01*
X054673Y013741D01*
X054671Y013721D01*
X054665Y013703D01*
X054656Y013685D01*
X054644Y013670D01*
X054629Y013658D01*
X054611Y013649D01*
X054593Y013643D01*
X054573Y013641D01*
X054553Y013643D01*
X054535Y013649D01*
X054517Y013658D01*
X054502Y013670D01*
X054490Y013685D01*
X054481Y013703D01*
X054475Y013721D01*
X054473Y013741D01*
X054473Y014048D02*
X054475Y014068D01*
X054481Y014086D01*
X054490Y014104D01*
X054502Y014119D01*
X054517Y014131D01*
X054535Y014140D01*
X054553Y014146D01*
X054573Y014148D01*
X054593Y014146D01*
X054611Y014140D01*
X054629Y014131D01*
X054644Y014119D01*
X054656Y014104D01*
X054665Y014086D01*
X054671Y014068D01*
X054673Y014048D01*
X054671Y014028D01*
X054665Y014010D01*
X054656Y013992D01*
X054644Y013977D01*
X054629Y013965D01*
X054611Y013956D01*
X054593Y013950D01*
X054573Y013948D01*
X054553Y013950D01*
X054535Y013956D01*
X054517Y013965D01*
X054502Y013977D01*
X054490Y013992D01*
X054481Y014010D01*
X054475Y014028D01*
X054473Y014048D01*
X054473Y014355D02*
X054475Y014375D01*
X054481Y014393D01*
X054490Y014411D01*
X054502Y014426D01*
X054517Y014438D01*
X054535Y014447D01*
X054553Y014453D01*
X054573Y014455D01*
X054593Y014453D01*
X054611Y014447D01*
X054629Y014438D01*
X054644Y014426D01*
X054656Y014411D01*
X054665Y014393D01*
X054671Y014375D01*
X054673Y014355D01*
X054671Y014335D01*
X054665Y014317D01*
X054656Y014299D01*
X054644Y014284D01*
X054629Y014272D01*
X054611Y014263D01*
X054593Y014257D01*
X054573Y014255D01*
X054553Y014257D01*
X054535Y014263D01*
X054517Y014272D01*
X054502Y014284D01*
X054490Y014299D01*
X054481Y014317D01*
X054475Y014335D01*
X054473Y014355D01*
X054473Y014662D02*
X054475Y014682D01*
X054481Y014700D01*
X054490Y014718D01*
X054502Y014733D01*
X054517Y014745D01*
X054535Y014754D01*
X054553Y014760D01*
X054573Y014762D01*
X054593Y014760D01*
X054611Y014754D01*
X054629Y014745D01*
X054644Y014733D01*
X054656Y014718D01*
X054665Y014700D01*
X054671Y014682D01*
X054673Y014662D01*
X054671Y014642D01*
X054665Y014624D01*
X054656Y014606D01*
X054644Y014591D01*
X054629Y014579D01*
X054611Y014570D01*
X054593Y014564D01*
X054573Y014562D01*
X054553Y014564D01*
X054535Y014570D01*
X054517Y014579D01*
X054502Y014591D01*
X054490Y014606D01*
X054481Y014624D01*
X054475Y014642D01*
X054473Y014662D01*
X054473Y014969D02*
X054475Y014989D01*
X054481Y015007D01*
X054490Y015025D01*
X054502Y015040D01*
X054517Y015052D01*
X054535Y015061D01*
X054553Y015067D01*
X054573Y015069D01*
X054593Y015067D01*
X054611Y015061D01*
X054629Y015052D01*
X054644Y015040D01*
X054656Y015025D01*
X054665Y015007D01*
X054671Y014989D01*
X054673Y014969D01*
X054671Y014949D01*
X054665Y014931D01*
X054656Y014913D01*
X054644Y014898D01*
X054629Y014886D01*
X054611Y014877D01*
X054593Y014871D01*
X054573Y014869D01*
X054553Y014871D01*
X054535Y014877D01*
X054517Y014886D01*
X054502Y014898D01*
X054490Y014913D01*
X054481Y014931D01*
X054475Y014949D01*
X054473Y014969D01*
X054473Y015277D02*
X054475Y015297D01*
X054481Y015315D01*
X054490Y015333D01*
X054502Y015348D01*
X054517Y015360D01*
X054535Y015369D01*
X054553Y015375D01*
X054573Y015377D01*
X054593Y015375D01*
X054611Y015369D01*
X054629Y015360D01*
X054644Y015348D01*
X054656Y015333D01*
X054665Y015315D01*
X054671Y015297D01*
X054673Y015277D01*
X054671Y015257D01*
X054665Y015239D01*
X054656Y015221D01*
X054644Y015206D01*
X054629Y015194D01*
X054611Y015185D01*
X054593Y015179D01*
X054573Y015177D01*
X054553Y015179D01*
X054535Y015185D01*
X054517Y015194D01*
X054502Y015206D01*
X054490Y015221D01*
X054481Y015239D01*
X054475Y015257D01*
X054473Y015277D01*
X054473Y015584D02*
X054475Y015604D01*
X054481Y015622D01*
X054490Y015640D01*
X054502Y015655D01*
X054517Y015667D01*
X054535Y015676D01*
X054553Y015682D01*
X054573Y015684D01*
X054593Y015682D01*
X054611Y015676D01*
X054629Y015667D01*
X054644Y015655D01*
X054656Y015640D01*
X054665Y015622D01*
X054671Y015604D01*
X054673Y015584D01*
X054671Y015564D01*
X054665Y015546D01*
X054656Y015528D01*
X054644Y015513D01*
X054629Y015501D01*
X054611Y015492D01*
X054593Y015486D01*
X054573Y015484D01*
X054553Y015486D01*
X054535Y015492D01*
X054517Y015501D01*
X054502Y015513D01*
X054490Y015528D01*
X054481Y015546D01*
X054475Y015564D01*
X054473Y015584D01*
X054473Y015891D02*
X054475Y015911D01*
X054481Y015929D01*
X054490Y015947D01*
X054502Y015962D01*
X054517Y015974D01*
X054535Y015983D01*
X054553Y015989D01*
X054573Y015991D01*
X054593Y015989D01*
X054611Y015983D01*
X054629Y015974D01*
X054644Y015962D01*
X054656Y015947D01*
X054665Y015929D01*
X054671Y015911D01*
X054673Y015891D01*
X054671Y015871D01*
X054665Y015853D01*
X054656Y015835D01*
X054644Y015820D01*
X054629Y015808D01*
X054611Y015799D01*
X054593Y015793D01*
X054573Y015791D01*
X054553Y015793D01*
X054535Y015799D01*
X054517Y015808D01*
X054502Y015820D01*
X054490Y015835D01*
X054481Y015853D01*
X054475Y015871D01*
X054473Y015891D01*
X061560Y015891D02*
X061562Y015911D01*
X061568Y015929D01*
X061577Y015947D01*
X061589Y015962D01*
X061604Y015974D01*
X061622Y015983D01*
X061640Y015989D01*
X061660Y015991D01*
X061680Y015989D01*
X061698Y015983D01*
X061716Y015974D01*
X061731Y015962D01*
X061743Y015947D01*
X061752Y015929D01*
X061758Y015911D01*
X061760Y015891D01*
X061758Y015871D01*
X061752Y015853D01*
X061743Y015835D01*
X061731Y015820D01*
X061716Y015808D01*
X061698Y015799D01*
X061680Y015793D01*
X061660Y015791D01*
X061640Y015793D01*
X061622Y015799D01*
X061604Y015808D01*
X061589Y015820D01*
X061577Y015835D01*
X061568Y015853D01*
X061562Y015871D01*
X061560Y015891D01*
X061560Y015584D02*
X061562Y015604D01*
X061568Y015622D01*
X061577Y015640D01*
X061589Y015655D01*
X061604Y015667D01*
X061622Y015676D01*
X061640Y015682D01*
X061660Y015684D01*
X061680Y015682D01*
X061698Y015676D01*
X061716Y015667D01*
X061731Y015655D01*
X061743Y015640D01*
X061752Y015622D01*
X061758Y015604D01*
X061760Y015584D01*
X061758Y015564D01*
X061752Y015546D01*
X061743Y015528D01*
X061731Y015513D01*
X061716Y015501D01*
X061698Y015492D01*
X061680Y015486D01*
X061660Y015484D01*
X061640Y015486D01*
X061622Y015492D01*
X061604Y015501D01*
X061589Y015513D01*
X061577Y015528D01*
X061568Y015546D01*
X061562Y015564D01*
X061560Y015584D01*
X061560Y015277D02*
X061562Y015297D01*
X061568Y015315D01*
X061577Y015333D01*
X061589Y015348D01*
X061604Y015360D01*
X061622Y015369D01*
X061640Y015375D01*
X061660Y015377D01*
X061680Y015375D01*
X061698Y015369D01*
X061716Y015360D01*
X061731Y015348D01*
X061743Y015333D01*
X061752Y015315D01*
X061758Y015297D01*
X061760Y015277D01*
X061758Y015257D01*
X061752Y015239D01*
X061743Y015221D01*
X061731Y015206D01*
X061716Y015194D01*
X061698Y015185D01*
X061680Y015179D01*
X061660Y015177D01*
X061640Y015179D01*
X061622Y015185D01*
X061604Y015194D01*
X061589Y015206D01*
X061577Y015221D01*
X061568Y015239D01*
X061562Y015257D01*
X061560Y015277D01*
X061560Y014969D02*
X061562Y014989D01*
X061568Y015007D01*
X061577Y015025D01*
X061589Y015040D01*
X061604Y015052D01*
X061622Y015061D01*
X061640Y015067D01*
X061660Y015069D01*
X061680Y015067D01*
X061698Y015061D01*
X061716Y015052D01*
X061731Y015040D01*
X061743Y015025D01*
X061752Y015007D01*
X061758Y014989D01*
X061760Y014969D01*
X061758Y014949D01*
X061752Y014931D01*
X061743Y014913D01*
X061731Y014898D01*
X061716Y014886D01*
X061698Y014877D01*
X061680Y014871D01*
X061660Y014869D01*
X061640Y014871D01*
X061622Y014877D01*
X061604Y014886D01*
X061589Y014898D01*
X061577Y014913D01*
X061568Y014931D01*
X061562Y014949D01*
X061560Y014969D01*
X061560Y014662D02*
X061562Y014682D01*
X061568Y014700D01*
X061577Y014718D01*
X061589Y014733D01*
X061604Y014745D01*
X061622Y014754D01*
X061640Y014760D01*
X061660Y014762D01*
X061680Y014760D01*
X061698Y014754D01*
X061716Y014745D01*
X061731Y014733D01*
X061743Y014718D01*
X061752Y014700D01*
X061758Y014682D01*
X061760Y014662D01*
X061758Y014642D01*
X061752Y014624D01*
X061743Y014606D01*
X061731Y014591D01*
X061716Y014579D01*
X061698Y014570D01*
X061680Y014564D01*
X061660Y014562D01*
X061640Y014564D01*
X061622Y014570D01*
X061604Y014579D01*
X061589Y014591D01*
X061577Y014606D01*
X061568Y014624D01*
X061562Y014642D01*
X061560Y014662D01*
X061560Y014355D02*
X061562Y014375D01*
X061568Y014393D01*
X061577Y014411D01*
X061589Y014426D01*
X061604Y014438D01*
X061622Y014447D01*
X061640Y014453D01*
X061660Y014455D01*
X061680Y014453D01*
X061698Y014447D01*
X061716Y014438D01*
X061731Y014426D01*
X061743Y014411D01*
X061752Y014393D01*
X061758Y014375D01*
X061760Y014355D01*
X061758Y014335D01*
X061752Y014317D01*
X061743Y014299D01*
X061731Y014284D01*
X061716Y014272D01*
X061698Y014263D01*
X061680Y014257D01*
X061660Y014255D01*
X061640Y014257D01*
X061622Y014263D01*
X061604Y014272D01*
X061589Y014284D01*
X061577Y014299D01*
X061568Y014317D01*
X061562Y014335D01*
X061560Y014355D01*
X061560Y014048D02*
X061562Y014068D01*
X061568Y014086D01*
X061577Y014104D01*
X061589Y014119D01*
X061604Y014131D01*
X061622Y014140D01*
X061640Y014146D01*
X061660Y014148D01*
X061680Y014146D01*
X061698Y014140D01*
X061716Y014131D01*
X061731Y014119D01*
X061743Y014104D01*
X061752Y014086D01*
X061758Y014068D01*
X061760Y014048D01*
X061758Y014028D01*
X061752Y014010D01*
X061743Y013992D01*
X061731Y013977D01*
X061716Y013965D01*
X061698Y013956D01*
X061680Y013950D01*
X061660Y013948D01*
X061640Y013950D01*
X061622Y013956D01*
X061604Y013965D01*
X061589Y013977D01*
X061577Y013992D01*
X061568Y014010D01*
X061562Y014028D01*
X061560Y014048D01*
X061560Y013741D02*
X061562Y013761D01*
X061568Y013779D01*
X061577Y013797D01*
X061589Y013812D01*
X061604Y013824D01*
X061622Y013833D01*
X061640Y013839D01*
X061660Y013841D01*
X061680Y013839D01*
X061698Y013833D01*
X061716Y013824D01*
X061731Y013812D01*
X061743Y013797D01*
X061752Y013779D01*
X061758Y013761D01*
X061760Y013741D01*
X061758Y013721D01*
X061752Y013703D01*
X061743Y013685D01*
X061731Y013670D01*
X061716Y013658D01*
X061698Y013649D01*
X061680Y013643D01*
X061660Y013641D01*
X061640Y013643D01*
X061622Y013649D01*
X061604Y013658D01*
X061589Y013670D01*
X061577Y013685D01*
X061568Y013703D01*
X061562Y013721D01*
X061560Y013741D01*
X061560Y013434D02*
X061562Y013454D01*
X061568Y013472D01*
X061577Y013490D01*
X061589Y013505D01*
X061604Y013517D01*
X061622Y013526D01*
X061640Y013532D01*
X061660Y013534D01*
X061680Y013532D01*
X061698Y013526D01*
X061716Y013517D01*
X061731Y013505D01*
X061743Y013490D01*
X061752Y013472D01*
X061758Y013454D01*
X061760Y013434D01*
X061758Y013414D01*
X061752Y013396D01*
X061743Y013378D01*
X061731Y013363D01*
X061716Y013351D01*
X061698Y013342D01*
X061680Y013336D01*
X061660Y013334D01*
X061640Y013336D01*
X061622Y013342D01*
X061604Y013351D01*
X061589Y013363D01*
X061577Y013378D01*
X061568Y013396D01*
X061562Y013414D01*
X061560Y013434D01*
X061560Y013127D02*
X061562Y013147D01*
X061568Y013165D01*
X061577Y013183D01*
X061589Y013198D01*
X061604Y013210D01*
X061622Y013219D01*
X061640Y013225D01*
X061660Y013227D01*
X061680Y013225D01*
X061698Y013219D01*
X061716Y013210D01*
X061731Y013198D01*
X061743Y013183D01*
X061752Y013165D01*
X061758Y013147D01*
X061760Y013127D01*
X061758Y013107D01*
X061752Y013089D01*
X061743Y013071D01*
X061731Y013056D01*
X061716Y013044D01*
X061698Y013035D01*
X061680Y013029D01*
X061660Y013027D01*
X061640Y013029D01*
X061622Y013035D01*
X061604Y013044D01*
X061589Y013056D01*
X061577Y013071D01*
X061568Y013089D01*
X061562Y013107D01*
X061560Y013127D01*
X061560Y012536D02*
X061562Y012556D01*
X061568Y012574D01*
X061577Y012592D01*
X061589Y012607D01*
X061604Y012619D01*
X061622Y012628D01*
X061640Y012634D01*
X061660Y012636D01*
X061680Y012634D01*
X061698Y012628D01*
X061716Y012619D01*
X061731Y012607D01*
X061743Y012592D01*
X061752Y012574D01*
X061758Y012556D01*
X061760Y012536D01*
X061758Y012516D01*
X061752Y012498D01*
X061743Y012480D01*
X061731Y012465D01*
X061716Y012453D01*
X061698Y012444D01*
X061680Y012438D01*
X061660Y012436D01*
X061640Y012438D01*
X061622Y012444D01*
X061604Y012453D01*
X061589Y012465D01*
X061577Y012480D01*
X061568Y012498D01*
X061562Y012516D01*
X061560Y012536D01*
X061560Y011946D02*
X061562Y011966D01*
X061568Y011984D01*
X061577Y012002D01*
X061589Y012017D01*
X061604Y012029D01*
X061622Y012038D01*
X061640Y012044D01*
X061660Y012046D01*
X061680Y012044D01*
X061698Y012038D01*
X061716Y012029D01*
X061731Y012017D01*
X061743Y012002D01*
X061752Y011984D01*
X061758Y011966D01*
X061760Y011946D01*
X061758Y011926D01*
X061752Y011908D01*
X061743Y011890D01*
X061731Y011875D01*
X061716Y011863D01*
X061698Y011854D01*
X061680Y011848D01*
X061660Y011846D01*
X061640Y011848D01*
X061622Y011854D01*
X061604Y011863D01*
X061589Y011875D01*
X061577Y011890D01*
X061568Y011908D01*
X061562Y011926D01*
X061560Y011946D01*
X061560Y011355D02*
X061562Y011375D01*
X061568Y011393D01*
X061577Y011411D01*
X061589Y011426D01*
X061604Y011438D01*
X061622Y011447D01*
X061640Y011453D01*
X061660Y011455D01*
X061680Y011453D01*
X061698Y011447D01*
X061716Y011438D01*
X061731Y011426D01*
X061743Y011411D01*
X061752Y011393D01*
X061758Y011375D01*
X061760Y011355D01*
X061758Y011335D01*
X061752Y011317D01*
X061743Y011299D01*
X061731Y011284D01*
X061716Y011272D01*
X061698Y011263D01*
X061680Y011257D01*
X061660Y011255D01*
X061640Y011257D01*
X061622Y011263D01*
X061604Y011272D01*
X061589Y011284D01*
X061577Y011299D01*
X061568Y011317D01*
X061562Y011335D01*
X061560Y011355D01*
X061560Y010686D02*
X061562Y010706D01*
X061568Y010724D01*
X061577Y010742D01*
X061589Y010757D01*
X061604Y010769D01*
X061622Y010778D01*
X061640Y010784D01*
X061660Y010786D01*
X061680Y010784D01*
X061698Y010778D01*
X061716Y010769D01*
X061731Y010757D01*
X061743Y010742D01*
X061752Y010724D01*
X061758Y010706D01*
X061760Y010686D01*
X061758Y010666D01*
X061752Y010648D01*
X061743Y010630D01*
X061731Y010615D01*
X061716Y010603D01*
X061698Y010594D01*
X061680Y010588D01*
X061660Y010586D01*
X061640Y010588D01*
X061622Y010594D01*
X061604Y010603D01*
X061589Y010615D01*
X061577Y010630D01*
X061568Y010648D01*
X061562Y010666D01*
X061560Y010686D01*
X061560Y010292D02*
X061562Y010312D01*
X061568Y010330D01*
X061577Y010348D01*
X061589Y010363D01*
X061604Y010375D01*
X061622Y010384D01*
X061640Y010390D01*
X061660Y010392D01*
X061680Y010390D01*
X061698Y010384D01*
X061716Y010375D01*
X061731Y010363D01*
X061743Y010348D01*
X061752Y010330D01*
X061758Y010312D01*
X061760Y010292D01*
X061758Y010272D01*
X061752Y010254D01*
X061743Y010236D01*
X061731Y010221D01*
X061716Y010209D01*
X061698Y010200D01*
X061680Y010194D01*
X061660Y010192D01*
X061640Y010194D01*
X061622Y010200D01*
X061604Y010209D01*
X061589Y010221D01*
X061577Y010236D01*
X061568Y010254D01*
X061562Y010272D01*
X061560Y010292D01*
X061560Y009899D02*
X061562Y009919D01*
X061568Y009937D01*
X061577Y009955D01*
X061589Y009970D01*
X061604Y009982D01*
X061622Y009991D01*
X061640Y009997D01*
X061660Y009999D01*
X061680Y009997D01*
X061698Y009991D01*
X061716Y009982D01*
X061731Y009970D01*
X061743Y009955D01*
X061752Y009937D01*
X061758Y009919D01*
X061760Y009899D01*
X061758Y009879D01*
X061752Y009861D01*
X061743Y009843D01*
X061731Y009828D01*
X061716Y009816D01*
X061698Y009807D01*
X061680Y009801D01*
X061660Y009799D01*
X061640Y009801D01*
X061622Y009807D01*
X061604Y009816D01*
X061589Y009828D01*
X061577Y009843D01*
X061568Y009861D01*
X061562Y009879D01*
X061560Y009899D01*
X061560Y009505D02*
X061562Y009525D01*
X061568Y009543D01*
X061577Y009561D01*
X061589Y009576D01*
X061604Y009588D01*
X061622Y009597D01*
X061640Y009603D01*
X061660Y009605D01*
X061680Y009603D01*
X061698Y009597D01*
X061716Y009588D01*
X061731Y009576D01*
X061743Y009561D01*
X061752Y009543D01*
X061758Y009525D01*
X061760Y009505D01*
X061758Y009485D01*
X061752Y009467D01*
X061743Y009449D01*
X061731Y009434D01*
X061716Y009422D01*
X061698Y009413D01*
X061680Y009407D01*
X061660Y009405D01*
X061640Y009407D01*
X061622Y009413D01*
X061604Y009422D01*
X061589Y009434D01*
X061577Y009449D01*
X061568Y009467D01*
X061562Y009485D01*
X061560Y009505D01*
D11*
X059613Y011060D03*
X059613Y011651D03*
X059613Y012241D03*
X059613Y012832D03*
X056699Y012832D03*
X056699Y012241D03*
X056699Y011651D03*
X056699Y011060D03*
X052526Y011060D03*
X052526Y011651D03*
X052526Y012241D03*
X052526Y012832D03*
X049613Y012832D03*
X049613Y012241D03*
X049613Y011651D03*
X049613Y011060D03*
X045439Y011060D03*
X045439Y011651D03*
X045439Y012241D03*
X045439Y012832D03*
X042526Y012832D03*
X042526Y012241D03*
X042526Y011651D03*
X042526Y011060D03*
X038353Y011060D03*
X038353Y011651D03*
X038353Y012241D03*
X038353Y012832D03*
X035439Y012832D03*
X035439Y012241D03*
X035439Y011651D03*
X035439Y011060D03*
X031266Y011060D03*
X031266Y011651D03*
X031266Y012241D03*
X031266Y012832D03*
X028353Y012832D03*
X028353Y012241D03*
X028353Y011651D03*
X028353Y011060D03*
X024180Y011060D03*
X024180Y011651D03*
X024180Y012241D03*
X024180Y012832D03*
X021266Y012832D03*
X021266Y012241D03*
X021266Y011651D03*
X021266Y011060D03*
X017093Y011060D03*
X017093Y011651D03*
X017093Y012241D03*
X017093Y012832D03*
X014180Y012832D03*
X014180Y012241D03*
X014180Y011651D03*
X014180Y011060D03*
X009967Y011060D03*
X009967Y011651D03*
X009967Y012241D03*
X009967Y012832D03*
X063786Y012832D03*
X063786Y012241D03*
X063786Y011651D03*
X063786Y011060D03*
X066699Y011060D03*
X066699Y011651D03*
X066699Y012241D03*
X066699Y012832D03*
D12*
X068018Y013599D03*
X062467Y013599D03*
X060931Y013599D03*
X055380Y013599D03*
X053845Y013599D03*
X048294Y013599D03*
X046758Y013599D03*
X041207Y013599D03*
X039672Y013599D03*
X034120Y013599D03*
X032585Y013599D03*
X027034Y013599D03*
X025498Y013599D03*
X019947Y013599D03*
X018412Y013599D03*
X012861Y013599D03*
X011286Y013599D03*
X011286Y010292D03*
X012861Y010292D03*
X018412Y010292D03*
X019947Y010292D03*
X025498Y010292D03*
X027034Y010292D03*
X032585Y010292D03*
X034120Y010292D03*
X039672Y010292D03*
X041207Y010292D03*
X046758Y010292D03*
X048294Y010292D03*
X053845Y010292D03*
X055380Y010292D03*
X060931Y010292D03*
X062467Y010292D03*
X068018Y010292D03*
D13*
X009162Y010916D03*
X008662Y010916D03*
X008162Y010916D03*
X007662Y010916D03*
X007662Y012976D03*
X008162Y012976D03*
X008662Y012976D03*
X009162Y012976D03*
D14*
X009337Y013993D03*
X008589Y013993D03*
X008589Y014702D03*
X009337Y014702D03*
X007447Y014859D03*
X006620Y014859D03*
X006620Y015568D03*
X007447Y015568D03*
D15*
X008589Y009938D03*
X009298Y009938D03*
D16*
X007467Y014032D03*
X006640Y014032D03*
M02*
