%
M48
M72
T01C0.0130
T02C0.0150
T03C0.0160
T04C0.0200
%
T01
X13077Y9741
X16581Y10725
X16443Y11355
X15321Y11670
X13392Y12261
X12565Y11670
X9101Y12064
X7329Y12103
X7329Y10371
X13392Y13245
X16758Y13206
X18550Y12261
X19652Y11670
X20479Y12261
X22408Y11670
X23530Y11355
X23668Y10725
X26739Y11670
X27565Y12261
X25636Y12261
X23845Y13206
X20479Y13245
X27565Y13245
X30931Y13206
X32723Y12261
X34652Y12261
X33825Y11670
X36581Y11670
X37703Y11355
X37841Y10725
X40912Y11670
X41739Y12261
X39809Y12261
X38018Y13206
X34652Y13245
X29494Y11670
X30617Y11355
X30754Y10725
X27250Y9741
X34337Y9741
X41424Y9741
X44928Y10725
X44790Y11355
X43668Y11670
X46896Y12261
X47998Y11670
X48825Y12261
X50754Y11670
X51876Y11355
X52014Y10725
X55085Y11670
X55912Y12261
X53983Y12261
X52191Y13206
X48825Y13245
X45105Y13206
X41739Y13245
X48510Y9741
X55597Y9741
X59101Y10725
X58963Y11355
X57841Y11670
X61069Y12261
X62172Y11670
X62998Y12261
X64928Y11670
X66050Y11355
X66187Y10725
X62683Y9741
X68156Y12261
X66365Y13206
X62998Y13245
X59278Y13206
X55912Y13245
X20164Y9741
X8943Y15214
T02
X13347Y15332
X13347Y14625
X20434Y14625
X20434Y15332
X27521Y15332
X27521Y14625
X34607Y14625
X34607Y15332
X41694Y15332
X41694Y14625
X48780Y14625
X48780Y15332
X55867Y15332
X55867Y14625
X62954Y14625
X62954Y15332
X61191Y9603
X60691Y9603
X60191Y9603
X59691Y9603
X59191Y9603
X58691Y9603
X54105Y9603
X53605Y9603
X53105Y9603
X52605Y9603
X52105Y9603
X51605Y9603
X47018Y9603
X46518Y9603
X46018Y9603
X45518Y9603
X45018Y9603
X44518Y9603
X39931Y9603
X39431Y9603
X38931Y9603
X38431Y9603
X37931Y9603
X37431Y9603
X32845Y9603
X32345Y9603
X31845Y9603
X31345Y9603
X30845Y9603
X30345Y9603
X25758Y9603
X25258Y9603
X24758Y9603
X24258Y9603
X23758Y9603
X23258Y9603
X18672Y9603
X18172Y9603
X17672Y9603
X17172Y9603
X16672Y9603
X16172Y9603
X65778Y9603
X66278Y9603
X66778Y9603
X67278Y9603
X67778Y9603
X68278Y9603
T03
X11266Y11651
X8392Y11828
T04
X12054Y9111
X12054Y9505
X12054Y9899
X12054Y10292
X12054Y10686
X12054Y11355
X12054Y11946
X12054Y12536
X12054Y13127
X12054Y13434
X12054Y13741
X12054Y14048
X12054Y14355
X12054Y14662
X12054Y14969
X12054Y15277
X12054Y15584
X12054Y15891
X12054Y16198
X19140Y16198
X19140Y15891
X19140Y15584
X19140Y15277
X19140Y14969
X19140Y14662
X19140Y14355
X19140Y14048
X19140Y13741
X19140Y13434
X19140Y13127
X19140Y12536
X19140Y11946
X19140Y11355
X19140Y10686
X19140Y10292
X19140Y9899
X19140Y9505
X19140Y9111
X26227Y9111
X26227Y9505
X26227Y9899
X26227Y10292
X26227Y10686
X26227Y11355
X26227Y11946
X26227Y12536
X26227Y13127
X26227Y13434
X26227Y13741
X26227Y14048
X26227Y14355
X26227Y14662
X26227Y14969
X26227Y15277
X26227Y15584
X26227Y15891
X26227Y16198
X33313Y16198
X33313Y15891
X33313Y15584
X33313Y15277
X33313Y14969
X33313Y14662
X33313Y14355
X33313Y14048
X33313Y13741
X33313Y13434
X33313Y13127
X33313Y12536
X33313Y11946
X33313Y11355
X33313Y10686
X33313Y10292
X33313Y9899
X33313Y9505
X33313Y9111
X40400Y9111
X40400Y9505
X40400Y9899
X40400Y10292
X40400Y10686
X40400Y11355
X40400Y11946
X40400Y12536
X40400Y13127
X40400Y13434
X40400Y13741
X40400Y14048
X40400Y14355
X40400Y14662
X40400Y14969
X40400Y15277
X40400Y15584
X40400Y15891
X40400Y16198
X47487Y16198
X47487Y15891
X47487Y15584
X47487Y15277
X47487Y14969
X47487Y14662
X47487Y14355
X47487Y14048
X47487Y13741
X47487Y13434
X47487Y13127
X47487Y12536
X47487Y11946
X47487Y11355
X47487Y10686
X47487Y10292
X47487Y9899
X47487Y9505
X47487Y9111
X54573Y9111
X54573Y9505
X54573Y9899
X54573Y10292
X54573Y10686
X54573Y11355
X54573Y11946
X54573Y12536
X54573Y13127
X54573Y13434
X54573Y13741
X54573Y14048
X54573Y14355
X54573Y14662
X54573Y14969
X54573Y15277
X54573Y15584
X54573Y15891
X54573Y16198
X61660Y16198
X61660Y15891
X61660Y15584
X61660Y15277
X61660Y14969
X61660Y14662
X61660Y14355
X61660Y14048
X61660Y13741
X61660Y13434
X61660Y13127
X61660Y12536
X61660Y11946
X61660Y11355
X61660Y10686
X61660Y10292
X61660Y9899
X61660Y9505
X61660Y9111
M30
